<svg width="483" height="336" viewBox="0 0 483 336" fill="none" xmlns="http://www.w3.org/2000/svg">
<g clip-path="url(#clip0)">
<path d="M403.564 51.6651L366.304 52.0278C364.553 43.4111 358.669 20.8022 363.968 14.6353C364.21 12.3143 365.338 10.1758 367.117 8.66503C368.897 7.15423 371.191 6.38755 373.522 6.52458V6.52458C379.297 -2.50989 388.916 -1.15342 395.417 4.489C401.96 6.74533 404.427 10.7538 403.564 16.1936C408.41 20.4325 409.304 25.5898 407.128 31.4604L403.564 51.6651Z" fill="#2F2E41"/>
<path d="M399.977 74.6043L373.096 70.8845L367.719 63.0314C375.125 58.1217 377.746 51.2642 374.336 41.952L392.947 41.5387C392.075 49.8313 394.819 56.252 402.459 60.1381L399.977 74.6043Z" fill="#FFB9B9"/>
<path d="M366.74 316.927L365.712 330.971C365.666 331.607 365.756 332.245 365.976 332.843C366.197 333.441 366.543 333.985 366.991 334.439C367.439 334.892 367.979 335.245 368.574 335.472C369.17 335.7 369.808 335.798 370.444 335.76L377.662 335.323C377.996 335.302 378.322 335.209 378.616 335.048C378.91 334.888 379.166 334.665 379.364 334.395C379.562 334.125 379.698 333.814 379.762 333.486C379.827 333.157 379.818 332.818 379.737 332.494L375.731 316.478L366.74 316.927Z" fill="#E6E6E6"/>
<path d="M390.107 316.478L386.101 332.494C386.019 332.818 386.011 333.157 386.075 333.486C386.14 333.814 386.276 334.125 386.474 334.395C386.672 334.665 386.927 334.888 387.221 335.048C387.515 335.209 387.841 335.302 388.176 335.323L395.394 335.76C396.03 335.798 396.668 335.7 397.263 335.472C397.859 335.245 398.399 334.892 398.847 334.439C399.295 333.985 399.641 333.441 399.862 332.843C400.082 332.245 400.172 331.607 400.126 330.971L399.098 316.927L390.107 316.478Z" fill="#E6E6E6"/>
<path d="M399.564 318.877L389.823 317.9L380.126 214.307L376.461 317.566L366.892 317.224L350.763 174.214H412.384L399.564 318.877Z" fill="#458FF6"/>
<path d="M384.675 48.5652C394.954 48.5652 403.286 40.2379 403.286 29.9658C403.286 19.6936 394.954 11.3663 384.675 11.3663C374.397 11.3663 366.065 19.6936 366.065 29.9658C366.065 40.2379 374.397 48.5652 384.675 48.5652Z" fill="#FFB9B9"/>
<path d="M421.483 177.521L346.214 178.348C357.384 135.849 364.066 96.3711 352.417 69.2312L371.028 60.1382C380.001 69.4923 389.995 68.5279 400.805 59.3115L418.588 63.858C415.542 99.4479 416.907 137.565 421.483 177.521Z" fill="#458FF6"/>
<path d="M325.535 133.709L372.268 152.309L382.717 155.38C383.184 155.517 383.674 155.559 384.158 155.502C384.642 155.445 385.109 155.291 385.532 155.049C385.955 154.807 386.324 154.483 386.618 154.095C386.912 153.706 387.125 153.263 387.243 152.79C387.45 151.962 387.357 151.088 386.98 150.321C386.604 149.555 385.968 148.947 385.185 148.605L374.336 145.282L341.664 126.269L348.488 108.29L334.22 100.644L325.535 133.709Z" fill="#FFB9B9"/>
<path d="M325.949 99.8169C334.84 103.284 341.912 109.2 347.454 117.176L364.824 91.9638L352.417 69.2312L325.949 99.8169Z" fill="#458FF6"/>
<path d="M405.65 26.9513C398.097 25.0063 390.671 24.7392 383.451 27.2063C378.853 29.4322 373.33 29.2272 367.189 27.3931V8.83649L400.345 9.72014L405.65 26.9513Z" fill="#2F2E41"/>
<path d="M372.113 112.038C370.652 112.04 369.251 112.621 368.218 113.654C367.184 114.686 366.603 116.087 366.601 117.547L368.777 163.064C368.779 164.524 369.36 165.924 370.393 166.957C371.427 167.99 372.828 168.571 374.289 168.572H399.164C400.625 168.571 402.026 167.99 403.059 166.957C404.093 165.924 404.674 164.524 404.676 163.064L406.851 117.547C406.85 116.087 406.268 114.686 405.235 113.654C404.202 112.621 402.801 112.04 401.339 112.038H372.113Z" fill="#3F3D56"/>
<path d="M442.69 130.271L401.956 146.481L398.883 147.704C398.785 147.742 398.687 147.774 398.584 147.807L388.287 150.835C386.971 151.221 385.149 149.449 384.083 148.226C383.555 147.636 383.256 146.877 383.24 146.086C383.224 145.295 383.492 144.525 383.996 143.915C384.138 143.751 384.295 143.6 384.464 143.464C384.86 143.155 385.328 142.95 385.823 142.866L396.109 140.844C396.478 140.771 396.832 140.639 397.159 140.452L401.956 137.658L426.862 123.166C427.555 122.763 428.082 122.128 428.35 121.374C428.618 120.619 428.609 119.794 428.325 119.045L423.571 106.515C423.28 105.749 423.277 104.902 423.565 104.134C423.852 103.366 424.409 102.728 425.132 102.341L433.008 98.1223C433.458 97.8809 433.957 97.7446 434.468 97.7239C434.978 97.7031 435.486 97.7984 435.955 98.0025C436.423 98.2066 436.838 98.5142 437.17 98.9022C437.502 99.2902 437.742 99.7484 437.871 100.242L444.708 126.27C444.918 127.068 444.829 127.915 444.457 128.652C444.086 129.389 443.457 129.965 442.69 130.271V130.271Z" fill="#FFB9B9"/>
<path d="M445.056 95.2704C436.165 98.7371 429.093 104.654 423.551 112.63L406.181 87.4173L418.588 63.858L445.056 95.2704Z" fill="#458FF6"/>
<path d="M397.061 46.5202C388.919 49.9047 380.382 49.7673 371.497 46.5202C374.082 42.1095 370.217 38.655 368.233 34.2025L401.412 33.217C398.875 37.0851 395.131 41.6551 397.061 46.5202Z" fill="white"/>
<path d="M401.061 33.953L400.676 33.5687L401.22 33.0251L404.469 29.2351L404.882 29.5884L401.619 33.3936L401.061 33.953Z" fill="white"/>
<path d="M365.96 31.6492L365.611 32.067L368.875 34.785L369.223 34.3672L365.96 31.6492Z" fill="white"/>
<path d="M401.998 37.1488L396.286 46.1173L396.745 46.4093L402.457 37.4408L401.998 37.1488Z" fill="white"/>
<path d="M366.559 37.1481L366.1 37.4401L371.811 46.4094L372.27 46.1175L366.559 37.1481Z" fill="white"/>
<path d="M403.044 136.889V146.737L399.613 148.103C399.504 148.145 399.395 148.181 399.28 148.218L387.786 151.598C386.317 152.028 384.283 150.05 383.093 148.685C382.504 148.027 382.17 147.18 382.152 146.297C382.135 145.414 382.434 144.554 382.996 143.873C383.155 143.69 383.33 143.522 383.518 143.37C383.961 143.025 384.483 142.796 385.036 142.702L396.517 140.445C396.929 140.364 397.325 140.217 397.689 140.008L403.044 136.889Z" fill="white"/>
<path d="M408.015 101.762H406.05C406.05 73.9787 400.326 54.6168 394.748 54.6168L394.256 52.6524C399.259 52.6524 402.448 60.7107 404.242 67.471C406.675 76.6356 408.015 88.8138 408.015 101.762Z" fill="#3F3D56"/>
<path d="M362.807 94.8869H360.842C360.842 69.4416 366.605 53.6346 375.092 53.6346L374.601 55.599C368.73 55.599 362.807 67.7472 362.807 94.8869Z" fill="#3F3D56"/>
<path d="M407.033 107.164C409.746 107.164 411.946 104.966 411.946 102.253C411.946 99.541 409.746 97.3423 407.033 97.3423C404.319 97.3423 402.119 99.541 402.119 102.253C402.119 104.966 404.319 107.164 407.033 107.164Z" fill="#3F3D56"/>
<path d="M354.945 106.673H352.979C352.979 99.6326 356.947 93.9047 361.824 93.9047V95.8691C358.031 95.8691 354.945 100.716 354.945 106.673Z" fill="#3F3D56"/>
<path d="M370.669 106.673H368.704C368.704 100.716 365.618 95.8691 361.824 95.8691V93.9047C366.702 93.9047 370.669 99.6326 370.669 106.673Z" fill="#3F3D56"/>
<path d="M369.687 109.129C370.772 109.129 371.652 108.249 371.652 107.164C371.652 106.079 370.772 105.2 369.687 105.2C368.601 105.2 367.721 106.079 367.721 107.164C367.721 108.249 368.601 109.129 369.687 109.129Z" fill="#3F3D56"/>
<path d="M353.962 109.129C355.048 109.129 355.928 108.249 355.928 107.164C355.928 106.079 355.048 105.2 353.962 105.2C352.877 105.2 351.997 106.079 351.997 107.164C351.997 108.249 352.877 109.129 353.962 109.129Z" fill="#3F3D56"/>
<path d="M117.09 41.1489L82.5693 46.9912C81.7166 47.1366 80.8401 46.9607 80.1097 46.4975C79.3792 46.0343 78.8466 45.3168 78.615 44.4838C76.121 35.4876 70.9066 23.7517 75.9692 17.8603C76.2271 15.3818 77.4316 13.0982 79.3318 11.4849C81.232 9.87166 83.6816 9.05295 86.1706 9.19927C92.3374 -0.448111 102.609 1.00038 109.551 7.0256C116.538 9.435 119.172 13.7155 118.251 19.5242C121.27 22.1647 122.852 25.1389 123.186 28.4033C123.344 30.2198 123.113 32.0493 122.507 33.7694C121.902 35.4896 120.937 37.061 119.676 38.3787L117.09 41.1489Z" fill="#2F2E41"/>
<path d="M111.723 68.3096L84.9617 66.7364C87.5843 60.7204 88.6319 54.9274 87.5853 49.4307H107.525C107.48 53.6511 109.581 60.9516 111.723 68.3096Z" fill="#9F616A"/>
<path d="M79.5099 315.443L78.4123 330.439C78.3626 331.118 78.4587 331.8 78.6942 332.438C78.9297 333.077 79.2991 333.658 79.7776 334.142C80.2561 334.627 80.8327 335.003 81.4688 335.246C82.1048 335.49 82.7855 335.594 83.4653 335.553L91.1727 335.086C91.5299 335.065 91.8778 334.965 92.1919 334.793C92.506 334.622 92.7785 334.384 92.99 334.096C93.2015 333.807 93.3469 333.476 93.4159 333.125C93.4848 332.774 93.4755 332.412 93.3887 332.065L89.1105 314.963L79.5099 315.443Z" fill="#E6E6E6"/>
<path d="M104.462 314.963L100.184 332.065C100.097 332.412 100.088 332.774 100.157 333.125C100.226 333.476 100.371 333.807 100.583 334.096C100.794 334.384 101.067 334.622 101.381 334.793C101.695 334.965 102.043 335.065 102.4 335.086L110.107 335.553C110.787 335.594 111.468 335.49 112.104 335.246C112.74 335.003 113.317 334.627 113.795 334.142C114.274 333.658 114.643 333.077 114.878 332.438C115.114 331.8 115.21 331.118 115.16 330.439L114.063 315.443L104.462 314.963Z" fill="#E6E6E6"/>
<path d="M114.56 317.525L104.159 316.482L93.8043 205.86L89.8908 316.125L79.6722 315.759L62.449 163.048H128.251L114.56 317.525Z" fill="#458FF6"/>
<path d="M98.0812 55.7968C109.057 55.7968 117.954 46.9046 117.954 35.9356C117.954 24.9665 109.057 16.0743 98.0812 16.0743C87.1056 16.0743 78.2081 24.9665 78.2081 35.9356C78.2081 46.9046 87.1056 55.7968 98.0812 55.7968Z" fill="#9F616A"/>
<path d="M120.479 26.4476C112.413 25.0437 104.483 24.851 96.7741 26.6317C91.8636 28.2383 85.9664 28.0902 79.4081 26.7665V13.3729L114.814 14.0107L120.479 26.4476Z" fill="#2F2E41"/>
<path d="M111.307 51.8717C102.613 55.4858 93.497 55.339 84.0083 51.8717C86.7694 47.1617 82.6422 43.4729 80.5234 38.7183L115.953 37.666C113.244 41.7964 109.246 46.6764 111.307 51.8717Z" fill="white"/>
<path d="M78.084 36.0059L77.7356 36.4238L81.2204 39.326L81.5687 38.9081L78.084 36.0059Z" fill="white"/>
<path d="M116.595 41.874L110.495 51.451L110.954 51.743L117.054 42.1659L116.595 41.874Z" fill="white"/>
<path d="M78.7192 41.8736L78.2603 42.1655L84.3589 51.7434L84.8178 51.4515L78.7192 41.8736Z" fill="white"/>
<path d="M60.2996 126.52L45.0825 117.08L58.06 79.0943C59.5074 75.1747 62.2797 71.8836 65.8977 69.7903L70.2694 67.2608L70.6495 105.581L60.2996 126.52Z" fill="#458FF6"/>
<path d="M126.075 144.969L123.823 125.697C123.703 115.525 125.435 105.69 129.563 96.6281L131.662 68.3096L108.574 58.8702C108.504 59.3404 108.443 59.8103 108.376 60.2804L97.5552 65.6876L87.0022 63.2906L87.0606 59.919L66.0716 69.3585C73.0126 101.609 69.2268 135.1 57.2906 174.658L84.9418 182.214L85.1717 168.945L109.815 167.186C110.069 171.491 110.273 175.72 110.391 179.854C124.296 184.971 124.774 184.886 137.444 177.56C132.398 166.959 128.403 155.926 126.075 144.969Z" fill="#458FF6"/>
<path d="M161.572 121.8L147.404 117.08L124.742 90.7143L131.662 68.3099L163.146 112.361L161.572 121.8Z" fill="#458FF6"/>
<path d="M117.171 142.212C117.402 143.229 118.028 144.112 118.911 144.668C119.793 145.225 120.86 145.408 121.878 145.179L133.905 142.458L132.167 134.786L120.14 137.507C119.122 137.738 118.237 138.363 117.68 139.245C117.124 140.127 116.94 141.195 117.171 142.212V142.212Z" fill="#E6E6E6"/>
<path d="M127.989 133.337L134.811 145.923C146.284 142.725 156.228 132.643 165.77 120.751L163.146 112.36L146.879 116.556L127.989 133.337Z" fill="#458FF6"/>
<path d="M39.048 93.8578L52.1434 96.1948L82.0758 138.73L66.1743 134.99L39.048 93.8578Z" fill="#E6E6E6"/>
<path d="M36.7252 93.3372C36.5257 93.3402 36.3306 93.3967 36.1604 93.5008C35.9902 93.605 35.8511 93.7529 35.7577 93.9292C35.6643 94.1055 35.62 94.3036 35.6294 94.5028C35.6389 94.702 35.7017 94.8951 35.8113 95.0617L63.7901 137.487C63.9463 137.725 64.1874 137.893 64.464 137.958L77.4817 141.019C77.7012 141.07 77.9312 141.054 78.1412 140.972C78.3512 140.89 78.5313 140.746 78.6576 140.559C78.7839 140.373 78.8504 140.152 78.8484 139.927C78.8463 139.701 78.7757 139.482 78.6459 139.298L47.9269 95.645C47.8436 95.5261 47.7377 95.4247 47.6151 95.3468C47.4926 95.2688 47.3559 95.2157 47.2128 95.1905L36.9351 93.3561C36.8658 93.3437 36.7956 93.3373 36.7252 93.3372Z" fill="#3F3D56"/>
<path d="M54.1786 123.671L54.9562 131.499L67.2268 130.282C68.2654 130.178 69.2206 129.667 69.8821 128.86C70.5437 128.054 70.8574 127.017 70.7544 125.979C70.6513 124.941 70.1398 123.987 69.3325 123.325C68.5252 122.664 67.4881 122.351 66.4494 122.454L54.1786 123.671Z" fill="#E6E6E6"/>
<path d="M43.5085 122.764C43.5264 125.433 44.599 127.987 46.4927 129.87C48.3864 131.752 50.9477 132.81 53.6185 132.813H55.6362L57.1051 120.579L44.9428 116.203L43.5085 122.764Z" fill="#458FF6"/>
<path d="M114.984 39.0193L114.599 38.635L115.18 38.0544L118.651 34.0063L119.064 34.3596L115.579 38.423L114.984 39.0193Z" fill="white"/>
<path d="M483 334.913H0V336H483V334.913Z" fill="#3F3D56"/>
<path d="M184.389 334.369H298.612V195.906C298.612 188.575 291.385 182.61 282.504 182.61H200.496C191.614 182.61 184.389 188.575 184.389 195.906V334.369Z" fill="#E6E6E6"/>
<path d="M193.091 328.643H289.909V211.28C289.909 205.065 283.784 200.009 276.256 200.009H206.744C199.216 200.009 193.091 205.065 193.091 211.28V328.643Z" fill="white"/>
<path d="M183.526 171.834C180.702 171.834 178.405 173.73 178.405 176.061V188.261C178.405 190.591 180.702 192.488 183.526 192.488H299.475C302.298 192.488 304.595 190.591 304.595 188.261V176.061C304.595 173.73 302.298 171.834 299.475 171.834H183.526Z" fill="#3F3D56"/>
<path d="M207.331 313.594C206.006 313.598 204.736 314.126 203.799 315.063C202.861 316 202.333 317.269 202.329 318.594V318.594C202.333 319.918 202.861 321.188 203.799 322.124C204.736 323.061 206.006 323.589 207.331 323.593H216.695V313.594H207.331Z" fill="#3F3D56"/>
<path d="M225.288 313.594H216.182V323.593H225.288C226.614 323.589 227.884 323.061 228.821 322.125C229.758 321.188 230.287 319.918 230.29 318.594V318.594C230.287 317.269 229.758 316 228.821 315.063C227.884 314.126 226.614 313.598 225.288 313.594V313.594Z" fill="#458FF6"/>
<path opacity="0.2" d="M228.552 314.819C229.341 315.723 229.776 316.881 229.777 318.081V318.081C229.773 319.406 229.245 320.675 228.308 321.612C227.371 322.548 226.101 323.076 224.775 323.08H216.182V323.593H225.288C226.614 323.589 227.884 323.061 228.821 322.124C229.758 321.188 230.287 319.918 230.29 318.594C230.289 317.877 230.133 317.168 229.833 316.517C229.533 315.865 229.096 315.286 228.552 314.819V314.819Z" fill="black"/>
<path d="M249.583 238.292C248.671 237.331 247.416 236.769 246.091 236.73C244.766 236.691 243.479 237.178 242.512 238.084V238.084C241.55 238.995 240.989 240.25 240.949 241.574C240.91 242.898 241.397 244.184 242.304 245.151L248.726 251.96L256.006 245.101L249.583 238.292Z" fill="#3F3D56"/>
<path d="M261.901 251.351L255.654 244.728L248.374 251.587L254.621 258.209C255.533 259.171 256.788 259.732 258.113 259.771C259.438 259.81 260.725 259.324 261.692 258.418V258.418C262.654 257.507 263.215 256.252 263.255 254.928C263.294 253.603 262.807 252.318 261.901 251.351V251.351Z" fill="#458FF6"/>
<path opacity="0.2" d="M263.248 254.564C263.131 255.758 262.586 256.869 261.713 257.693V257.693C260.746 258.599 259.459 259.085 258.135 259.046C256.81 259.007 255.554 258.446 254.642 257.484L248.747 251.235L248.374 251.587L254.621 258.209C255.533 259.171 256.788 259.732 258.113 259.771C259.438 259.81 260.725 259.324 261.692 258.418C262.213 257.925 262.622 257.326 262.89 256.661C263.159 255.996 263.281 255.281 263.248 254.564V254.564Z" fill="black"/>
<path d="M222.931 254.056C222.019 253.095 220.764 252.534 219.439 252.495C218.114 252.456 216.827 252.942 215.86 253.848V253.848C214.898 254.759 214.336 256.014 214.297 257.338C214.258 258.662 214.745 259.948 215.651 260.915L222.074 267.724L229.354 260.866L222.931 254.056Z" fill="#3F3D56"/>
<path d="M235.249 267.115L229.002 260.493L221.722 267.351L227.969 273.974C228.881 274.935 230.136 275.496 231.461 275.535C232.786 275.575 234.073 275.088 235.04 274.182V274.182C236.002 273.271 236.563 272.016 236.603 270.692C236.642 269.368 236.155 268.082 235.249 267.115V267.115Z" fill="#458FF6"/>
<path opacity="0.2" d="M236.596 270.329C236.479 271.523 235.934 272.634 235.061 273.457V273.457C234.094 274.363 232.807 274.85 231.483 274.811C230.158 274.772 228.902 274.21 227.99 273.249L222.095 266.999L221.722 267.351L227.969 273.974C228.881 274.935 230.136 275.496 231.461 275.535C232.786 275.575 234.073 275.088 235.04 274.182V274.182C235.561 273.69 235.97 273.09 236.238 272.425C236.507 271.76 236.629 271.045 236.596 270.329Z" fill="black"/>
<path d="M249.583 268.733C248.671 267.772 247.416 267.211 246.091 267.172C244.766 267.133 243.479 267.619 242.512 268.525V268.525C241.55 269.436 240.989 270.691 240.949 272.015C240.91 273.339 241.397 274.625 242.304 275.592L248.726 282.401L256.006 275.543L249.583 268.733Z" fill="#3F3D56"/>
<path d="M261.901 281.792L255.654 275.17L248.374 282.028L254.621 288.651C255.533 289.612 256.788 290.173 258.113 290.213C259.438 290.252 260.725 289.765 261.692 288.859V288.859C262.654 287.948 263.215 286.693 263.255 285.369C263.294 284.045 262.807 282.759 261.901 281.792V281.792Z" fill="#458FF6"/>
<path opacity="0.2" d="M263.248 285.006C263.131 286.2 262.586 287.311 261.713 288.134C260.746 289.04 259.459 289.527 258.135 289.488C256.81 289.449 255.554 288.887 254.642 287.926L248.747 281.676L248.374 282.028L254.621 288.651C255.533 289.612 256.788 290.173 258.113 290.212C259.438 290.252 260.725 289.765 261.692 288.859V288.859C262.213 288.367 262.622 287.767 262.89 287.102C263.159 286.437 263.281 285.722 263.248 285.006V285.006Z" fill="black"/>
<path d="M265.843 299.972C266.793 299.049 267.34 297.788 267.363 296.463C267.386 295.139 266.883 293.859 265.965 292.903V292.903C265.042 291.953 263.779 291.407 262.454 291.384C261.129 291.361 259.848 291.863 258.892 292.781L252.157 299.282L259.108 306.473L265.843 299.972Z" fill="#3F3D56"/>
<path d="M252.927 312.44L259.477 306.117L252.527 298.925L245.976 305.248C245.026 306.171 244.479 307.433 244.456 308.757C244.433 310.082 244.935 311.362 245.854 312.317V312.317C246.777 313.267 248.039 313.814 249.365 313.837C250.69 313.86 251.971 313.357 252.927 312.44V312.44Z" fill="#458FF6"/>
<path opacity="0.2" d="M249.728 313.826C248.532 313.723 247.414 313.192 246.579 312.33V312.33C245.661 311.374 245.159 310.094 245.182 308.77C245.205 307.445 245.751 306.184 246.702 305.261L252.883 299.294L252.527 298.925L245.976 305.248C245.026 306.171 244.479 307.433 244.456 308.757C244.433 310.082 244.935 311.362 245.854 312.317V312.317C246.353 312.832 246.957 313.233 247.626 313.494C248.295 313.754 249.011 313.867 249.728 313.826Z" fill="black"/>
<path d="M229.944 284.208C230.895 283.285 231.441 282.023 231.464 280.699C231.487 279.374 230.985 278.095 230.067 277.139C229.143 276.189 227.881 275.643 226.555 275.62C225.23 275.597 223.95 276.099 222.994 277.016L216.259 283.517L223.209 290.709L229.944 284.208Z" fill="#3F3D56"/>
<path d="M217.028 296.676L223.578 290.353L216.628 283.161L210.078 289.484C209.127 290.407 208.58 291.669 208.557 292.993C208.534 294.318 209.037 295.597 209.955 296.553V296.553C210.878 297.503 212.141 298.049 213.466 298.072C214.791 298.095 216.072 297.593 217.028 296.676V296.676Z" fill="#458FF6"/>
<path opacity="0.2" d="M213.829 298.061C212.633 297.959 211.515 297.428 210.68 296.566C209.762 295.61 209.26 294.33 209.283 293.006C209.306 291.681 209.852 290.42 210.803 289.497L216.984 283.53L216.628 283.161L210.078 289.484C209.127 290.407 208.58 291.669 208.557 292.993C208.534 294.318 209.037 295.597 209.955 296.553V296.553C210.454 297.068 211.059 297.469 211.727 297.73C212.396 297.99 213.113 298.103 213.829 298.061V298.061Z" fill="black"/>
<path d="M281.072 265.182C282.023 264.259 282.57 262.998 282.593 261.673C282.616 260.349 282.113 259.069 281.195 258.113V258.113C280.271 257.163 279.009 256.617 277.684 256.594C276.359 256.571 275.078 257.073 274.122 257.99L267.387 264.491L274.338 271.683L281.072 265.182Z" fill="#3F3D56"/>
<path d="M268.156 277.65L274.707 271.327L267.756 264.135L261.206 270.458C260.255 271.381 259.709 272.643 259.686 273.967C259.663 275.292 260.165 276.572 261.083 277.527V277.527C262.007 278.477 263.269 279.023 264.595 279.046C265.92 279.069 267.2 278.567 268.156 277.65Z" fill="#458FF6"/>
<path opacity="0.2" d="M264.958 279.035C263.762 278.933 262.643 278.402 261.809 277.54V277.54C260.891 276.584 260.388 275.304 260.411 273.98C260.434 272.655 260.981 271.394 261.932 270.471L268.113 264.504L267.756 264.135L261.206 270.458C260.255 271.381 259.709 272.643 259.686 273.967C259.663 275.292 260.165 276.572 261.083 277.527V277.527C261.583 278.042 262.187 278.443 262.856 278.704C263.524 278.964 264.241 279.077 264.958 279.035Z" fill="black"/>
<path d="M269.708 304.611C268.796 303.65 267.541 303.088 266.216 303.049C264.891 303.01 263.604 303.496 262.637 304.402V304.402C261.675 305.314 261.114 306.569 261.074 307.893C261.035 309.217 261.522 310.503 262.429 311.469L268.851 318.278L276.131 311.42L269.708 304.611Z" fill="#3F3D56"/>
<path d="M282.026 317.67L275.779 311.047L268.499 317.905L274.746 324.528C275.658 325.489 276.913 326.051 278.238 326.09C279.563 326.129 280.85 325.642 281.817 324.737V324.737C282.779 323.825 283.34 322.57 283.38 321.246C283.419 319.922 282.932 318.636 282.026 317.67Z" fill="#458FF6"/>
<path opacity="0.2" d="M283.373 320.883C283.256 322.077 282.711 323.188 281.838 324.012V324.012C280.871 324.918 279.584 325.404 278.26 325.365C276.935 325.326 275.679 324.764 274.767 323.803L268.872 317.554L268.499 317.905L274.746 324.528C275.658 325.489 276.913 326.051 278.238 326.09C279.563 326.129 280.85 325.642 281.817 324.737V324.737C282.338 324.244 282.747 323.645 283.015 322.98C283.284 322.315 283.406 321.6 283.373 320.883V320.883Z" fill="black"/>
<path d="M234.354 304.067C233.442 303.106 232.186 302.544 230.861 302.505C229.536 302.466 228.25 302.953 227.283 303.859V303.859C226.321 304.77 225.759 306.025 225.72 307.349C225.681 308.673 226.167 309.959 227.074 310.926L233.496 317.735L240.776 310.876L234.354 304.067Z" fill="#3F3D56"/>
<path d="M246.671 317.126L240.424 310.503L233.144 317.362L239.391 323.984C240.303 324.946 241.558 325.507 242.883 325.546C244.208 325.585 245.495 325.099 246.462 324.193V324.193C247.424 323.282 247.986 322.027 248.025 320.703C248.064 319.378 247.577 318.093 246.671 317.126V317.126Z" fill="#458FF6"/>
<path opacity="0.2" d="M248.018 320.34C247.901 321.533 247.356 322.645 246.483 323.468V323.468C245.516 324.374 244.23 324.861 242.905 324.821C241.58 324.782 240.324 324.221 239.412 323.26L233.518 317.01L233.144 317.362L239.391 323.984C240.303 324.946 241.558 325.507 242.883 325.546C244.208 325.585 245.495 325.099 246.462 324.193V324.193C246.983 323.7 247.392 323.101 247.661 322.436C247.929 321.771 248.051 321.056 248.018 320.34Z" fill="black"/>
<path d="M244.305 286.132C244.306 287.794 243.732 289.405 242.68 290.693C241.628 291.981 240.164 292.865 238.534 293.198C237.582 293.39 236.601 293.39 235.649 293.198C234.019 292.865 232.555 291.98 231.503 290.693C230.452 289.405 229.877 287.794 229.877 286.132C229.877 284.47 230.452 282.859 231.503 281.572C232.555 280.284 234.019 279.399 235.649 279.067C236.601 278.874 237.582 278.874 238.534 279.067C240.164 279.399 241.628 280.284 242.68 281.571C243.732 282.859 244.306 284.47 244.305 286.132V286.132Z" fill="#458FF6"/>
<path opacity="0.2" d="M238.534 279.067V293.198C237.582 293.39 236.601 293.39 235.649 293.198V279.067C236.601 278.874 237.582 278.874 238.534 279.067Z" fill="black"/>
<path d="M247.569 257.322C247.569 258.984 246.995 260.595 245.943 261.882C244.892 263.17 243.427 264.055 241.798 264.387C240.846 264.579 239.864 264.579 238.912 264.387C237.283 264.054 235.819 263.169 234.767 261.882C233.715 260.595 233.141 258.984 233.141 257.322C233.141 255.66 233.715 254.049 234.767 252.761C235.819 251.474 237.283 250.589 238.912 250.256C239.864 250.064 240.845 250.064 241.798 250.256C243.427 250.588 244.892 251.473 245.943 252.761C246.995 254.048 247.569 255.66 247.569 257.322V257.322Z" fill="#458FF6"/>
<path opacity="0.2" d="M241.798 250.256V264.387C240.845 264.579 239.864 264.579 238.912 264.387V250.256C239.864 250.064 240.845 250.064 241.798 250.256Z" fill="black"/>
<path d="M247.569 298.635C247.569 300.297 246.995 301.908 245.943 303.196C244.892 304.483 243.427 305.368 241.798 305.701C240.846 305.893 239.864 305.893 238.912 305.701C237.283 305.368 235.819 304.483 234.767 303.195C233.715 301.908 233.141 300.297 233.141 298.635C233.141 296.973 233.715 295.362 234.767 294.074C235.819 292.787 237.283 291.902 238.912 291.569C239.864 291.377 240.845 291.377 241.798 291.569C243.427 291.902 244.892 292.787 245.943 294.074C246.995 295.362 247.569 296.973 247.569 298.635V298.635Z" fill="#458FF6"/>
<path opacity="0.2" d="M241.798 291.569V305.701C240.845 305.893 239.864 305.893 238.912 305.701V291.569C239.864 291.377 240.845 291.377 241.798 291.569Z" fill="black"/>
<path d="M265.518 318.748C265.519 320.41 264.944 322.021 263.893 323.309C262.841 324.596 261.376 325.481 259.747 325.814C258.795 326.006 257.814 326.006 256.861 325.814C255.232 325.481 253.768 324.596 252.716 323.308C251.664 322.021 251.09 320.41 251.09 318.748C251.09 317.086 251.664 315.475 252.716 314.188C253.768 312.9 255.232 312.015 256.861 311.682C257.814 311.49 258.795 311.49 259.747 311.682C261.376 312.015 262.841 312.9 263.893 314.187C264.944 315.475 265.519 317.086 265.518 318.748V318.748Z" fill="#458FF6"/>
<path opacity="0.2" d="M259.747 311.682V325.814C258.795 326.006 257.814 326.006 256.861 325.814V311.682C257.814 311.49 258.795 311.49 259.747 311.682Z" fill="black"/>
<path d="M281.374 281.742C282.572 282.895 283.334 284.427 283.532 286.077C283.73 287.727 283.351 289.395 282.46 290.798C281.937 291.617 281.256 292.323 280.457 292.875C279.087 293.816 277.433 294.256 275.775 294.119C274.118 293.982 272.559 293.278 271.362 292.124C270.164 290.971 269.402 289.44 269.205 287.789C269.007 286.139 269.385 284.471 270.276 283.068C270.799 282.249 271.48 281.544 272.279 280.992C273.649 280.05 275.303 279.61 276.961 279.747C278.618 279.884 280.177 280.589 281.374 281.742V281.742Z" fill="#458FF6"/>
<path opacity="0.2" d="M272.279 280.992L282.459 290.798C281.937 291.617 281.256 292.323 280.457 292.875L270.276 283.068C270.799 282.249 271.48 281.544 272.279 280.992V280.992Z" fill="black"/>
<path d="M283.55 297.507C284.748 298.66 285.51 300.191 285.708 301.841C285.906 303.492 285.527 305.159 284.635 306.563C284.113 307.381 283.432 308.087 282.633 308.639C281.262 309.581 279.609 310.02 277.951 309.883C276.294 309.747 274.735 309.042 273.537 307.889C272.34 306.735 271.578 305.204 271.38 303.554C271.183 301.904 271.561 300.236 272.452 298.832C272.975 298.014 273.655 297.308 274.455 296.756C275.825 295.814 277.479 295.374 279.136 295.511C280.794 295.648 282.353 296.353 283.55 297.507V297.507Z" fill="#458FF6"/>
<path opacity="0.2" d="M274.455 296.756L284.635 306.563C284.113 307.381 283.432 308.087 282.633 308.639L272.452 298.833C272.974 298.014 273.655 297.308 274.455 296.756V296.756Z" fill="black"/>
<path d="M218.824 301.312C220.021 302.465 220.784 303.996 220.981 305.646C221.179 307.297 220.8 308.965 219.909 310.368C219.387 311.187 218.706 311.893 217.906 312.444C216.536 313.386 214.882 313.825 213.225 313.689C211.567 313.552 210.008 312.847 208.811 311.694C207.614 310.54 206.852 309.009 206.654 307.359C206.456 305.709 206.835 304.041 207.726 302.638C208.248 301.819 208.929 301.113 209.728 300.561C211.099 299.619 212.752 299.18 214.41 299.316C216.067 299.453 217.627 300.158 218.824 301.312V301.312Z" fill="#458FF6"/>
<path opacity="0.2" d="M209.728 300.561L219.909 310.368C219.387 311.187 218.706 311.893 217.906 312.444L207.726 302.638C208.248 301.819 208.929 301.113 209.728 300.561V300.561Z" fill="black"/>
<path opacity="0.2" d="M195.539 171.834H192.819V191.947H195.539V171.834Z" fill="black"/>
<path opacity="0.2" d="M211.312 171.834H208.593V191.947H211.312V171.834Z" fill="black"/>
<path opacity="0.2" d="M227.086 171.834H224.367V191.947H227.086V171.834Z" fill="black"/>
<path opacity="0.2" d="M242.86 171.834H240.14V191.947H242.86V171.834Z" fill="black"/>
<path opacity="0.2" d="M258.633 171.834H255.914V191.947H258.633V171.834Z" fill="black"/>
<path opacity="0.2" d="M274.407 171.834H271.688V191.947H274.407V171.834Z" fill="black"/>
<path opacity="0.2" d="M290.181 171.834H287.461V191.947H290.181V171.834Z" fill="black"/>
</g>
<defs>
<clipPath id="clip0">
<rect width="483" height="336" fill="white"/>
</clipPath>
</defs>
</svg>
