<svg width="63" height="63" viewBox="0 0 63 63" fill="none" xmlns="http://www.w3.org/2000/svg">
<g clip-path="url(#clip0)">
<path d="M31.3328 0.151426C30.9528 0.193277 30.6023 0.376268 30.3502 0.664331C30.0982 0.952394 29.963 1.32463 29.9712 1.70768V13.9661C29.9683 14.1692 30.0057 14.3708 30.0813 14.5592C30.1568 14.7476 30.269 14.9191 30.4112 15.0638C30.5535 15.2084 30.723 15.3232 30.9099 15.4016C31.0968 15.4799 31.2974 15.5203 31.5 15.5203C31.7026 15.5203 31.9032 15.4799 32.0901 15.4016C32.277 15.3232 32.4465 15.2084 32.5887 15.0638C32.731 14.9191 32.8431 14.7476 32.9187 14.5592C32.9942 14.3708 33.0317 14.1692 33.0288 13.9661V1.70768C33.0335 1.48954 32.9916 1.27292 32.9061 1.0723C32.8205 0.871678 32.6932 0.691682 32.5326 0.544353C32.3721 0.397023 32.182 0.285756 31.975 0.217993C31.7681 0.150231 31.5491 0.127536 31.3328 0.151426V0.151426ZM12.9872 12.4099C12.6958 12.4383 12.4186 12.55 12.1887 12.7317C11.9588 12.9134 11.7857 13.1574 11.6901 13.4348C11.5945 13.7121 11.5804 14.0112 11.6494 14.2964C11.7184 14.5816 11.8677 14.8409 12.0794 15.0435L18.1946 21.1728C18.3364 21.3189 18.5057 21.4352 18.6928 21.5149C18.88 21.5946 19.081 21.6361 19.2843 21.637C19.4877 21.6378 19.6891 21.598 19.8769 21.5199C20.0646 21.4418 20.235 21.327 20.378 21.1821C20.5209 21.0372 20.6336 20.8652 20.7095 20.6762C20.7853 20.4871 20.8228 20.2848 20.8196 20.081C20.8165 19.8773 20.7729 19.6762 20.6913 19.4896C20.6097 19.3029 20.4918 19.1344 20.3445 18.994L14.2293 12.8648C14.0695 12.7006 13.8748 12.5745 13.6599 12.4958C13.4449 12.417 13.215 12.3877 12.9872 12.4099ZM49.6545 12.4099C49.3176 12.4587 49.0065 12.6188 48.7706 12.8648L42.6554 18.994C42.5081 19.1344 42.3902 19.3029 42.3086 19.4896C42.2271 19.6762 42.1834 19.8773 42.1803 20.081C42.1772 20.2848 42.2147 20.4871 42.2905 20.6762C42.3663 20.8652 42.479 21.0372 42.622 21.1821C42.765 21.327 42.9353 21.4418 43.1231 21.5199C43.3109 21.598 43.5123 21.6378 43.7156 21.637C43.9189 21.6361 44.12 21.5946 44.3071 21.5149C44.4942 21.4352 44.6636 21.3189 44.8053 21.1728L50.9205 15.0435C51.1576 14.8204 51.3175 14.5272 51.377 14.2067C51.4364 13.8862 51.3924 13.555 51.2512 13.2613C51.11 12.9676 50.8791 12.7267 50.5919 12.5736C50.3048 12.4205 49.9764 12.3631 49.6545 12.4099V12.4099ZM31.5 24.6923C23.0439 24.6923 16.212 31.6599 16.212 40.2309V49.2092H12.39C12.3422 49.207 12.2944 49.207 12.2467 49.2092C11.8665 49.2451 11.5136 49.4223 11.2572 49.7058C11.0008 49.9894 10.8595 50.3588 10.8612 50.7415V59.9354H5.51038C5.46264 59.9331 5.41481 59.9331 5.36706 59.9354C5.16627 59.9448 4.96929 59.9937 4.78737 60.0794C4.60545 60.1651 4.44216 60.2859 4.30682 60.4349C4.17148 60.5838 4.06674 60.7581 3.99859 60.9476C3.93044 61.1371 3.9002 61.3383 3.90962 61.5395C3.91903 61.7408 3.9679 61.9382 4.05345 62.1205C4.13899 62.3028 4.25953 62.4665 4.40818 62.6021C4.55683 62.7377 4.73068 62.8427 4.91979 62.9109C5.10891 62.9792 5.3096 63.0095 5.51038 63H16.2836C16.4862 63.0029 16.6874 62.9654 16.8754 62.8896C17.0634 62.8139 17.2345 62.7015 17.3787 62.5589C17.523 62.4164 17.6376 62.2465 17.7158 62.0591C17.794 61.8718 17.8342 61.6707 17.8342 61.4677C17.8342 61.2646 17.794 61.0636 17.7158 60.8762C17.6376 60.6889 17.523 60.519 17.3787 60.3764C17.2345 60.2338 17.0634 60.1214 16.8754 60.0457C16.6874 59.97 16.4862 59.9325 16.2836 59.9354H13.9188V52.2738H49.0812V59.9354H22.3988C22.3511 59.9331 22.3033 59.9331 22.2555 59.9354C22.0547 59.9448 21.8578 59.9937 21.6758 60.0794C21.4939 60.1651 21.3306 60.2859 21.1953 60.4349C21.0599 60.5838 20.9552 60.7581 20.8871 60.9476C20.8189 61.1371 20.7887 61.3383 20.7981 61.5395C20.8075 61.7408 20.8564 61.9382 20.9419 62.1205C21.0275 62.3028 21.148 62.4665 21.2966 62.6021C21.4453 62.7377 21.6191 62.8427 21.8083 62.9109C21.9974 62.9792 22.1981 63.0095 22.3988 63H57.4896C57.6922 63.0029 57.8933 62.9654 58.0813 62.8896C58.2693 62.8139 58.4404 62.7015 58.5847 62.5589C58.729 62.4164 58.8435 62.2465 58.9217 62.0591C58.9999 61.8718 59.0402 61.6707 59.0402 61.4677C59.0402 61.2646 58.9999 61.0636 58.9217 60.8762C58.8435 60.6889 58.729 60.519 58.5847 60.3764C58.4404 60.2338 58.2693 60.1214 58.0813 60.0457C57.8933 59.97 57.6922 59.9325 57.4896 59.9354H52.1388V50.7415C52.1387 50.3351 51.9777 49.9454 51.691 49.6581C51.4043 49.3707 51.0154 49.2093 50.61 49.2092H46.788V40.2309C46.788 31.6599 39.9561 24.6923 31.5 24.6923ZM31.5 27.7569C38.2891 27.7569 43.7304 33.279 43.7304 40.2309V49.2092H19.2696V40.2309C19.2696 33.279 24.7109 27.7569 31.5 27.7569ZM31.5 30.0554C26.4424 30.0554 21.5628 33.989 21.5628 39.2492C21.5599 39.4523 21.5973 39.6539 21.6729 39.8423C21.7484 40.0307 21.8606 40.2022 22.0028 40.3468C22.1451 40.4914 22.3146 40.6063 22.5015 40.6846C22.6884 40.763 22.889 40.8034 23.0916 40.8034C23.2942 40.8034 23.4948 40.763 23.6817 40.6846C23.8686 40.6063 24.0381 40.4914 24.1803 40.3468C24.3226 40.2022 24.4347 40.0307 24.5103 39.8423C24.5858 39.6539 24.6233 39.4523 24.6204 39.2492C24.6204 35.997 28.088 33.12 31.5 33.12C31.7026 33.1229 31.9037 33.0854 32.0917 33.0096C32.2797 32.9339 32.4508 32.8215 32.5951 32.6789C32.7394 32.5364 32.8539 32.3665 32.9321 32.1791C33.0103 31.9918 33.0506 31.7907 33.0506 31.5877C33.0506 31.3846 33.0103 31.1836 32.9321 30.9962C32.8539 30.8089 32.7394 30.639 32.5951 30.4964C32.4508 30.3538 32.2797 30.2414 32.0917 30.1657C31.9037 30.09 31.7026 30.0525 31.5 30.0554ZM1.54506 30.8215C1.34427 30.8309 1.14729 30.8799 0.96537 30.9656C0.783452 31.0513 0.620161 31.1721 0.484821 31.321C0.349481 31.47 0.244744 31.6442 0.176591 31.8337C0.108438 32.0233 0.0782042 32.2244 0.0876163 32.4257C0.0970283 32.6269 0.145902 32.8243 0.231446 33.0067C0.31699 33.189 0.437528 33.3526 0.586177 33.4882C0.734827 33.6239 0.908675 33.7288 1.09779 33.7971C1.28691 33.8653 1.4876 33.8956 1.68838 33.8861H13.9188C14.1214 33.889 14.3225 33.8515 14.5105 33.7758C14.6985 33.7001 14.8696 33.5877 15.0139 33.4451C15.1582 33.3025 15.2727 33.1326 15.3509 32.9453C15.4291 32.758 15.4694 32.5569 15.4694 32.3538C15.4694 32.1508 15.4291 31.9497 15.3509 31.7624C15.2727 31.575 15.1582 31.4051 15.0139 31.2626C14.8696 31.12 14.6985 31.0076 14.5105 30.9319C14.3225 30.8562 14.1214 30.8186 13.9188 30.8215H1.68838C1.64064 30.8193 1.59281 30.8193 1.54506 30.8215ZM48.9379 30.8215C48.7371 30.8309 48.5401 30.8799 48.3582 30.9656C48.1762 31.0513 48.013 31.1721 47.8776 31.321C47.7423 31.47 47.6375 31.6442 47.5694 31.8337C47.5012 32.0233 47.471 32.2244 47.4804 32.4257C47.4898 32.6269 47.5387 32.8243 47.6242 33.0067C47.7098 33.189 47.8303 33.3526 47.979 33.4882C48.1276 33.6239 48.3015 33.7288 48.4906 33.7971C48.6797 33.8653 48.8804 33.8956 49.0812 33.8861H61.3116C61.5142 33.889 61.7153 33.8515 61.9033 33.7758C62.0913 33.7001 62.2624 33.5877 62.4067 33.4451C62.551 33.3025 62.6655 33.1326 62.7437 32.9453C62.8219 32.758 62.8622 32.5569 62.8622 32.3538C62.8622 32.1508 62.8219 31.9497 62.7437 31.7624C62.6655 31.575 62.551 31.4051 62.4067 31.2626C62.2624 31.12 62.0913 31.0076 61.9033 30.9319C61.7153 30.8562 61.5142 30.8186 61.3116 30.8215H49.0812C49.0334 30.8193 48.9856 30.8193 48.9379 30.8215V30.8215Z" fill="#458FF6"/>
</g>
<defs>
<clipPath id="clip0">
<rect width="63" height="63" fill="white"/>
</clipPath>
</defs>
</svg>
