<svg width="564" height="399" viewBox="0 0 564 399" fill="none" xmlns="http://www.w3.org/2000/svg">
<g clip-path="url(#clip0)">
<path opacity="0.1" d="M187.507 398.776C214.973 398.776 237.239 395.204 237.239 390.798C237.239 386.392 214.973 382.821 187.507 382.821C160.04 382.821 137.774 386.392 137.774 390.798C137.774 395.204 160.04 398.776 187.507 398.776Z" fill="#458FF6"/>
<path opacity="0.1" d="M457.844 399C492.118 399 519.902 395.428 519.902 391.022C519.902 386.617 492.118 383.045 457.844 383.045C423.571 383.045 395.786 386.617 395.786 391.022C395.786 395.428 423.571 399 457.844 399Z" fill="#458FF6"/>
<path opacity="0.1" d="M7.06381 172.397H58.8632V242.91H10.856C10.7284 243.634 10.6059 244.363 10.4732 245.092H58.8632V301.959C58.7764 301.934 58.6998 301.903 58.6182 301.873C57.2503 301.332 55.8927 300.761 54.5351 300.15L53.6674 299.757C52.3064 299.115 50.9453 298.435 49.5843 297.718C49.1096 297.468 48.635 297.208 48.1654 296.943C40.6095 292.716 33.7454 287.36 27.8111 281.06C27.6376 280.891 27.4743 280.713 27.3007 280.55C26.4739 279.653 25.6624 278.745 24.8764 277.818L24.0087 276.798C23.0798 275.661 22.1815 274.494 21.3088 273.311C21.1812 273.138 21.0587 272.965 20.926 272.802C17.3764 267.886 14.4292 262.564 12.1473 256.949C12.0758 256.78 12.0146 256.597 11.9482 256.439C11.2473 254.638 10.6263 252.82 10.0853 250.985C9.85053 250.215 9.62596 249.455 9.43201 248.655C9.36056 248.42 9.29931 248.191 9.24316 247.962C6.34416 236.661 6.0022 224.921 6.0022 213.263C6.0022 211.902 6.0022 210.536 6.0022 209.185C6.0022 204.47 6.05834 199.724 6.14 194.984C6.14 193.755 6.19104 192.532 6.21656 191.298C6.28801 188.168 6.39009 185.038 6.52279 181.909C6.55342 181.037 6.59425 180.17 6.64018 179.304C6.64018 178.804 6.6657 178.305 6.71674 177.805C6.83924 175.99 6.94131 174.191 7.06381 172.397Z" fill="#458FF6"/>
<path opacity="0.1" d="M58.8632 93.8854H30.4498C35.0686 86.6652 40.1151 79.727 45.5624 73.108C49.7834 67.929 54.2391 62.8825 58.8632 58.0195V93.8854Z" fill="#458FF6"/>
<path opacity="0.1" d="M58.8631 96.0671V170.215H7.22705C7.22705 170.001 7.26278 169.782 7.27809 169.568C7.32402 168.981 7.36996 168.395 7.421 167.814C7.47714 167.131 7.53839 166.443 7.60474 165.775C7.67109 165.107 7.74254 164.292 7.8191 163.553C7.89566 162.813 7.96711 162.064 8.05388 161.325C8.14065 160.586 8.2172 159.847 8.30907 159.113C8.40094 158.379 8.48261 157.634 8.57958 156.9C8.65614 156.289 8.7378 155.682 8.81946 155.07C8.93685 154.209 9.05935 153.342 9.19205 152.486C9.19205 152.359 9.22777 152.226 9.24819 152.104C10.1797 145.835 11.4491 139.62 13.0506 133.488C14.727 127.055 16.8677 120.751 19.456 114.627C22.2068 108.22 25.4276 102.025 29.0921 96.0926L58.8631 96.0671Z" fill="#458FF6"/>
<path opacity="0.1" d="M71.2299 172.392V242.91H181.867V172.392H71.2299ZM71.2299 245.087V305.645C71.8627 305.777 72.4905 305.905 73.1132 306.012C73.9604 306.175 74.8026 306.323 75.6651 306.45C75.8285 306.476 75.9969 306.501 76.1755 306.516C76.5124 306.573 76.8594 306.618 77.1963 306.664C78.0487 306.782 78.8959 306.878 79.7482 306.955C80.1515 306.996 80.5598 307.031 80.9681 307.062L81.9531 307.138C82.489 307.179 83.0198 307.21 83.5455 307.225C83.8722 307.225 84.1988 307.256 84.5357 307.266C84.7909 307.266 85.0461 307.266 85.3115 307.266C85.5769 307.266 85.9546 307.266 86.2761 307.266C86.7151 307.266 87.154 307.266 87.5878 307.266H88.1748C88.6137 307.266 89.0526 307.266 89.4865 307.225H89.5171C89.8182 307.225 90.1244 307.225 90.4307 307.184C90.5157 307.189 90.6009 307.189 90.6859 307.184C90.9411 307.184 91.1963 307.184 91.4412 307.149H91.6199L93.3297 307.016C93.8911 306.965 94.4576 306.899 95.0293 306.838L96.193 306.7C100.927 306.037 105.609 305.043 110.203 303.723C120.523 300.848 130.619 296.826 140.934 293.88C154.27 290.082 169.005 288.217 181.892 292.86V245.087H71.2299ZM181.867 93.8854V0.00510147C169.754 -0.125967 157.674 1.28899 145.92 4.21562C117.905 11.245 92.7683 26.4916 71.2299 45.964V93.8803H76.7829V96.0569H71.2299V170.215H181.867V96.062H99.582V93.8854H181.867ZM323.974 62.1739C317.043 61.9293 310.153 59.7373 303.921 56.3526C292.004 49.8788 282.485 39.8827 271.848 31.4463C249.749 13.8753 222.341 3.27258 194.223 0.642286V93.8854H352.163L352.556 93.4725L323.974 62.1739ZM338.362 59.6252L353.618 76.3449V55.2414C348.509 55.8735 344.033 57.3772 338.383 59.6048L338.362 59.6252ZM353.618 320.682V245.087H321.111C321.024 244.766 320.938 244.439 320.835 244.113C320.932 244.439 321.014 244.766 321.106 245.087H194.244V299.757C195.448 300.649 196.637 301.587 197.816 302.54C199.087 303.56 200.343 304.635 201.604 305.691L202.874 306.741C203.482 307.25 204.094 307.76 204.712 308.239C205.937 309.232 207.174 310.21 208.422 311.176C209.04 311.685 209.673 312.144 210.301 312.623C220.267 320.234 230.78 327.101 241.756 333.171C244.216 334.53 246.698 335.858 249.202 337.152C250.871 338.004 252.551 338.85 254.235 339.67C256.766 340.904 259.318 342.093 261.891 343.239C285.607 353.871 310.684 361.167 336.407 364.918C342.12 365.761 347.855 366.424 353.613 366.906V320.677H354.123L353.618 320.682ZM194.244 96.062V170.215H353.638V96.062H194.244ZM194.244 172.392V242.91H353.638V172.392H194.244ZM366.01 55.1496V78.6898L385.481 57.3517C379.03 56.3118 372.54 55.5693 366.01 55.1241V55.1496ZM366.01 172.417V242.91H521.041V172.392L366.01 172.417ZM520.474 326.279L521.02 245.087H366.01V367.717C375.996 368.136 385.997 368.017 395.97 367.36V367.36H396.143C400.907 367.061 405.648 366.626 410.368 366.055H410.475C435.653 363.128 460.272 356.568 483.563 346.578L520.474 326.279ZM550.934 184.004C550.352 182.632 549.745 181.271 549.127 179.926C547.974 177.377 546.754 174.9 545.498 172.422H533.402V242.91H563.985C563.969 222.948 558.911 202.558 550.949 183.978L550.934 184.004ZM533.402 245.112V314.948C542.018 306.7 549.296 297.265 554.537 286.478C560.841 273.49 563.724 259.426 563.959 245.102L533.402 245.112ZM533.402 151.869V170.22H544.365C541.049 163.903 537.394 157.769 533.417 151.844L533.402 151.869ZM428.262 68.9842C427.456 68.6783 426.649 68.3674 425.838 68.0666C417.279 64.9099 408.533 62.2848 399.65 60.2063L369.853 92.8659L369.282 93.4725L369.664 93.8905H475.713C460.943 83.7365 445.02 75.3675 428.277 68.9587L428.262 68.9842ZM478.821 96.0875H368.184L366.01 98.0755V170.215H385.068H385.099H521.061V135.272C508.762 120.416 494.566 107.233 478.837 96.062L478.821 96.0875Z" fill="#458FF6"/>
<path opacity="0.1" d="M58.8631 133.467V170.215H7.22705C7.22705 170.001 7.26278 169.782 7.27809 169.568C7.32402 168.981 7.36996 168.395 7.421 167.814C7.47714 167.131 7.53839 166.443 7.60474 165.775C7.67109 165.107 7.74254 164.292 7.8191 163.553C7.89566 162.813 7.96711 162.064 8.05388 161.325C8.14065 160.586 8.2172 159.847 8.30907 159.113C8.40094 158.379 8.48261 157.634 8.57958 156.9C8.65614 156.289 8.7378 155.682 8.81946 155.07C8.93685 154.209 9.05935 153.342 9.19205 152.486C9.19205 152.359 9.22777 152.226 9.24819 152.104C10.1797 145.835 11.4491 139.62 13.0506 133.488L58.8631 133.467Z" fill="#458FF6"/>
<path opacity="0.1" d="M7.06381 172.397H58.8632V242.91H10.856C10.7284 243.634 10.6059 244.363 10.4732 245.092H58.8632V301.959C58.7764 301.934 58.6998 301.903 58.6182 301.873C57.2503 301.332 55.8927 300.761 54.5351 300.15L53.6674 299.757C52.3064 299.115 50.9453 298.435 49.5843 297.718C49.1096 297.468 48.635 297.208 48.1654 296.943C40.6095 292.716 33.7454 287.36 27.8111 281.06C27.6376 280.891 27.4743 280.713 27.3007 280.55C26.4739 279.653 25.6624 278.745 24.8764 277.818L24.0087 276.798C23.0798 275.661 22.1815 274.494 21.3088 273.311C21.1812 273.138 21.0587 272.965 20.926 272.802C17.3764 267.886 14.4292 262.564 12.1473 256.949C12.0758 256.78 12.0146 256.597 11.9482 256.439C11.2473 254.638 10.6263 252.82 10.0853 250.985C9.85053 250.215 9.62596 249.455 9.43201 248.655C9.36056 248.42 9.29931 248.191 9.24316 247.962C6.34416 236.661 6.0022 224.921 6.0022 213.263C6.0022 211.902 6.0022 210.536 6.0022 209.185C6.0022 204.47 6.05834 199.724 6.14 194.984C6.14 193.755 6.19104 192.532 6.21656 191.298C6.28801 188.168 6.39009 185.038 6.52279 181.909C6.55342 181.037 6.59425 180.17 6.64018 179.304C6.64018 178.804 6.6657 178.305 6.71674 177.805C6.83924 175.99 6.94131 174.191 7.06381 172.397Z" fill="#458FF6"/>
<path opacity="0.1" d="M110.178 106.68V170.215H71.2299V106.68H76.7829V85.1687H99.5768V106.68H110.178Z" fill="#458FF6"/>
<path opacity="0.1" d="M110.178 172.392H71.235V242.905H110.178V172.392Z" fill="#458FF6"/>
<path opacity="0.1" d="M71.2299 245.092H110.178V303.713C105.583 305.031 100.902 306.024 96.1674 306.685L95.0038 306.827C94.4321 306.894 93.8656 306.95 93.3042 307.006C92.7427 307.062 92.1609 307.103 91.5944 307.138H91.4157C91.1707 307.138 90.9053 307.169 90.6655 307.174H90.4052C90.0989 307.174 89.7927 307.205 89.4865 307.215C89.0526 307.24 88.6188 307.245 88.1748 307.25C87.9859 307.25 87.8073 307.25 87.6184 307.25C87.1795 307.25 86.7457 307.25 86.3067 307.25H85.3421C85.0818 307.25 84.8317 307.25 84.5612 307.25L83.5762 307.215C83.0658 307.215 82.5145 307.159 81.9837 307.123L81.0038 307.052L79.784 306.94C78.9265 306.863 78.0742 306.766 77.232 306.649L76.2112 306.506L75.7009 306.435C74.8485 306.302 74.0064 306.16 73.1489 305.996C72.5211 305.889 71.8985 305.757 71.2656 305.629L71.2299 245.092Z" fill="#458FF6"/>
<path opacity="0.1" d="M353.638 99.1765H321.524V170.21H353.638V99.1765Z" fill="#458FF6"/>
<path opacity="0.1" d="M353.643 172.392V242.91H194.244V212.493H279.147V230.437H321.525V172.392H353.643Z" fill="#458FF6"/>
<path opacity="0.1" d="M354.149 320.698H353.638V366.957C347.888 366.471 342.154 365.81 336.438 364.974C310.702 361.211 285.614 353.9 261.891 343.249C255.041 340.17 248.331 336.809 241.761 333.166C230.786 327.093 220.271 320.226 210.301 312.618C207.796 310.701 205.324 308.741 202.885 306.736C201.195 305.344 199.516 303.917 197.816 302.53C196.637 301.577 195.448 300.639 194.244 299.742V245.092H321.101C321.014 244.766 320.927 244.439 320.835 244.118C320.932 244.439 321.024 244.766 321.111 245.092H353.638V320.667C353.812 320.672 353.98 320.687 354.149 320.698Z" fill="#458FF6"/>
<path opacity="0.1" d="M437.393 93.8854H416.467V87.3912H425.848V68.0462C426.661 68.3419 427.471 68.646 428.277 68.9587V87.3912H437.393V93.8854Z" fill="#458FF6"/>
<path opacity="0.1" d="M487.809 170.215H385.078C385.078 170.215 385.078 170.215 385.114 170.24L385.068 170.215H366.01V99.1816H371.41V151.686H396.087V120.591H416.472V96.0671H437.398V120.611H457.783V151.706H487.809V170.215Z" fill="#458FF6"/>
<path opacity="0.1" d="M366.01 172.392V242.91H487.809V172.392H366.01ZM520.872 325.917L521.041 270.1H487.809V245.122H366.01V367.717C375.996 368.136 385.997 368.017 395.97 367.36V367.36H396.143C400.907 367.061 405.649 366.626 410.368 366.055H410.475C435.653 363.128 460.272 356.568 483.563 346.578" fill="#458FF6"/>
<path opacity="0.1" d="M535.566 245.092H563.979C563.729 259.411 560.851 273.475 554.553 286.463C549.311 297.254 542.028 306.69 533.423 314.932V270.075H535.566V245.092Z" fill="#458FF6"/>
<path opacity="0.1" d="M563.995 242.91H535.566V183.978H550.949C558.911 202.558 563.969 222.948 563.995 242.91Z" fill="#458FF6"/>
<path opacity="0.1" d="M353.643 118.924H336.438V141.195H353.643V118.924Z" fill="#458FF6"/>
<path opacity="0.1" d="M353.643 165.087H336.438V170.215H353.643V165.087Z" fill="#458FF6"/>
<path opacity="0.1" d="M353.643 172.392H336.438V187.353H353.643V172.392Z" fill="#458FF6"/>
<path opacity="0.1" d="M353.643 211.25H336.438V233.521H353.643V211.25Z" fill="#458FF6"/>
<path opacity="0.1" d="M353.643 257.412H336.438V279.683H353.643V257.412Z" fill="#458FF6"/>
<path opacity="0.1" d="M353.638 320.667C353.812 320.667 353.98 320.667 354.148 320.698H353.638V325.872H336.438V303.575H353.638V320.667Z" fill="#458FF6"/>
<path opacity="0.1" d="M353.638 349.728V366.932C347.888 366.446 342.154 365.785 336.438 364.949V349.728H353.638Z" fill="#458FF6"/>
<path opacity="0.1" d="M267.98 241.274H194.244V242.91H267.98V241.274Z" fill="#458FF6"/>
<path opacity="0.1" d="M267.98 245.087H194.244V251.357H267.98V245.087Z" fill="#458FF6"/>
<path opacity="0.1" d="M267.98 271.91H194.244V281.992H267.98V271.91Z" fill="#458FF6"/>
<path opacity="0.1" d="M267.975 302.546V312.628H210.301C207.796 310.718 205.323 308.758 202.88 306.746C201.19 305.354 199.516 303.927 197.811 302.546H267.975Z" fill="#458FF6"/>
<path opacity="0.1" d="M267.975 333.176V343.249H261.886C255.043 340.167 248.335 336.804 241.761 333.161L267.975 333.176Z" fill="#458FF6"/>
<path opacity="0.1" d="M410.49 179.227H395.975V193.725H410.49V179.227Z" fill="#458FF6"/>
<path opacity="0.1" d="M96.2032 111.681H81.6877V126.178H96.2032V111.681Z" fill="#458FF6"/>
<path opacity="0.1" d="M96.2032 145.355H81.6877V159.852H96.2032V145.355Z" fill="#458FF6"/>
<path opacity="0.1" d="M96.2032 179.029H81.6877V193.526H96.2032V179.029Z" fill="#458FF6"/>
<path opacity="0.1" d="M96.2032 212.697H81.6877V227.195H96.2032V212.697Z" fill="#458FF6"/>
<path opacity="0.1" d="M96.2032 246.371H81.6877V260.869H96.2032V246.371Z" fill="#458FF6"/>
<path opacity="0.1" d="M96.2032 280.045H81.6877V294.542H96.2032V280.045Z" fill="#458FF6"/>
<path opacity="0.1" d="M465.903 179.227H451.388V193.725H465.903V179.227Z" fill="#458FF6"/>
<path opacity="0.1" d="M410.49 214.986H395.975V229.483H410.49V214.986Z" fill="#458FF6"/>
<path opacity="0.1" d="M465.903 214.986H451.388V229.483H465.903V214.986Z" fill="#458FF6"/>
<path opacity="0.1" d="M410.49 250.74H395.975V265.237H410.49V250.74Z" fill="#458FF6"/>
<path opacity="0.1" d="M465.903 250.74H451.388V265.237H465.903V250.74Z" fill="#458FF6"/>
<path opacity="0.1" d="M410.49 286.499H395.975V300.996H410.49V286.499Z" fill="#458FF6"/>
<path opacity="0.1" d="M465.903 286.499H451.388V300.996H465.903V286.499Z" fill="#458FF6"/>
<path opacity="0.1" d="M410.49 322.257H395.975V336.755H410.49V322.257Z" fill="#458FF6"/>
<path opacity="0.1" d="M465.903 322.257H451.388V336.755H465.903V322.257Z" fill="#458FF6"/>
<path opacity="0.1" d="M395.975 367.36V358.011H410.485V366.03L395.975 367.36Z" fill="#458FF6"/>
<path opacity="0.1" d="M9.18701 152.093V160.387H58.8631V152.093H9.18701ZM14.1378 159.867H10.0853V152.603H14.1684L14.1378 159.867ZM19.0834 159.867H15.0003V152.603H19.0834V159.867ZM24.0189 159.867H19.9358V152.603H24.0189V159.867ZM28.9646 159.867H24.8866V152.603H28.9697L28.9646 159.867ZM33.9051 159.867H29.822V152.603H33.9051V159.867ZM38.8508 159.867H34.7677V152.603H38.8508V159.867ZM43.7965 159.867H39.7134V152.603H43.7965V159.867ZM48.737 159.867H44.6539V152.603H48.737V159.867ZM53.6776 159.867H49.5945V152.603H53.6776V159.867ZM58.6182 159.867H54.535V152.603H58.6182V159.867Z" fill="#458FF6"/>
<path opacity="0.1" d="M9.18701 176.225V184.519H58.8631V176.225H9.18701ZM14.1378 183.993H10.0853V176.75H14.1684L14.1378 183.993ZM19.0834 183.993H15.0003V176.75H19.0834V183.993ZM24.0189 183.993H19.9358V176.75H24.0189V183.993ZM28.9646 183.993H24.8866V176.75H28.9697L28.9646 183.993ZM33.9051 183.993H29.822V176.75H33.9051V183.993ZM38.8508 183.993H34.7677V176.75H38.8508V183.993ZM43.7965 183.993H39.7134V176.75H43.7965V183.993ZM48.737 183.993H44.6539V176.75H48.737V183.993ZM53.6776 183.993H49.5945V176.75H53.6776V183.993ZM58.6182 183.993H54.535V176.75H58.6182V183.993Z" fill="#458FF6"/>
<path opacity="0.1" d="M9.18701 200.367V208.675H58.8631V200.367H9.18701ZM14.1378 208.135H10.0853V200.887H14.1684L14.1378 208.135ZM19.0834 208.135H15.0003V200.887H19.0834V208.135ZM24.0189 208.135H19.9358V200.887H24.0189V208.135ZM28.9646 208.135H24.8866V200.887H28.9697L28.9646 208.135ZM33.9051 208.135H29.822V200.887H33.9051V208.135ZM38.8508 208.135H34.7677V200.887H38.8508V208.135ZM43.7965 208.135H39.7134V200.887H43.7965V208.135ZM48.737 208.135H44.6539V200.887H48.737V208.135ZM53.6776 208.135H49.5945V200.887H53.6776V208.135ZM58.6182 208.135H54.535V200.887H58.6182V208.135Z" fill="#458FF6"/>
<path opacity="0.1" d="M9.18701 224.508V232.792H58.8631V224.508H9.18701ZM14.1378 232.277H10.0853V225.023H14.1684L14.1378 232.277ZM19.0834 232.277H15.0003V225.023H19.0834V232.277ZM24.0189 232.277H19.9358V225.023H24.0189V232.277ZM28.9646 232.277H24.8866V225.023H28.9697L28.9646 232.277ZM33.9051 232.277H29.822V225.023H33.9051V232.277ZM38.8508 232.277H34.7677V225.023H38.8508V232.277ZM43.7965 232.277H39.7134V225.023H43.7965V232.277ZM48.737 232.277H44.6539V225.023H48.737V232.277ZM53.6776 232.277H49.5945V225.023H53.6776V232.277ZM58.6182 232.277H54.535V225.023H58.6182V232.277Z" fill="#458FF6"/>
<path opacity="0.1" d="M9.40137 248.645C9.60042 249.425 9.82499 250.205 10.0598 250.974V249.165H14.1429V256.413H11.9584C12.0248 256.582 12.0911 256.765 12.1575 256.923H58.8631V248.645H9.40137ZM19.0988 256.413H15.0156V249.165H19.0988V256.413ZM24.0342 256.413H19.9511V249.165H24.0342V256.413ZM28.9799 256.413H24.8866V249.165H28.9697L28.9799 256.413ZM33.9204 256.413H29.8373V249.165H33.9204V256.413ZM38.8661 256.413H34.783V249.165H38.8661V256.413ZM43.8118 256.413H39.7287V249.165H43.8118V256.413ZM48.7523 256.413H44.6692V249.165H48.7523V256.413ZM53.6929 256.413H49.6098V249.165H53.6929V256.413ZM58.6335 256.413H54.5503V249.165H58.6335V256.413Z" fill="#458FF6"/>
<path opacity="0.1" d="M20.9362 272.786C21.0638 272.95 21.1862 273.133 21.3189 273.296H24.0189V276.778C24.3098 277.124 24.5956 277.471 24.8917 277.797V273.276H28.9748V280.55H27.3211C27.4844 280.718 27.6427 280.897 27.8315 281.06H58.8785V272.786H20.9362ZM33.9051 280.55H29.822V273.306H33.9051V280.55ZM38.8508 280.55H34.7677V273.306H38.8508V280.55ZM43.7965 280.55H39.7134V273.306H43.7965V280.55ZM48.737 280.55H44.6539V273.306H48.737V280.55ZM53.6776 280.55H49.5945V273.306H53.6776V280.55ZM58.6182 280.55H54.535V273.306H58.6182V280.55Z" fill="#458FF6"/>
<path opacity="0.1" d="M48.1858 296.923C48.6502 297.188 49.1249 297.433 49.6047 297.698V297.443H53.6878V299.737L54.5554 300.14V297.443H58.6386V301.852C58.7169 301.891 58.7989 301.922 58.8835 301.944V296.923H48.1858Z" fill="#458FF6"/>
<path opacity="0.1" d="M385.078 170.215H385.109H385.078ZM353.638 320.662H354.149H353.638ZM320.835 244.113C320.932 244.439 321.014 244.766 321.106 245.087C321.024 244.766 320.938 244.439 320.835 244.113ZM385.078 170.2H385.109H385.078ZM76.8033 93.8701V96.0467H99.6024V93.8701H76.8033ZM353.638 320.662H354.149H353.638ZM320.835 244.113C320.932 244.439 321.014 244.766 321.106 245.087C321.024 244.766 320.938 244.439 320.835 244.113ZM385.078 170.2H385.109H385.078ZM353.638 320.647H354.149H353.638ZM320.835 244.113C320.932 244.439 321.014 244.766 321.106 245.087C321.024 244.766 320.938 244.439 320.835 244.113Z" fill="#458FF6"/>
<path d="M235.595 193.536C235.595 193.536 233.585 193.256 233.585 190.33C233.585 187.404 232.145 181.939 232.145 181.939C232.145 181.914 230.9 172.422 229.18 170.913C227.46 169.405 225.25 160.545 225.25 160.545C225.25 160.545 224.872 155.738 224.102 154.703C223.331 153.669 222.29 151.135 220.753 147.521C219.217 143.907 212.812 141.404 212.812 141.404C212.812 141.404 201.231 134.696 197.949 132.509C197.651 132.329 197.372 132.119 197.117 131.882C196.546 131.133 194.055 131.117 194.055 131.117C193.795 129.476 193.545 127.59 193.463 125.882C193.463 125.699 193.463 125.515 193.437 125.332C197.097 123.171 199.853 119.765 201.2 115.738C201.262 115.545 201.313 115.341 201.369 115.147C201.588 115.075 201.79 114.958 201.961 114.803C202.133 114.649 202.27 114.46 202.364 114.25C202.66 113.592 202.665 112.822 203.033 112.211C203.461 111.487 204.278 111.1 204.921 110.554C206.544 109.178 206.963 106.858 206.886 104.748C206.835 103.04 206.559 101.317 206.667 99.62L206.697 99.1918C206.728 98.937 206.764 98.6821 206.81 98.4374C207.06 97.1732 207.606 95.9804 207.912 94.7265C208.218 93.4725 208.249 92.0605 207.534 90.9798C206.488 89.3945 204.309 89.0784 202.395 88.9153C200.226 88.7318 198.286 88.9714 196.898 87.172C196.248 86.2315 195.517 85.3497 194.713 84.5366C194.428 84.2715 191.651 82.5792 191.651 82.467C188.941 81.2135 185.869 80.9782 183 81.8043C181.561 82.2223 180.203 82.9054 178.743 83.2469C175.594 83.9912 171.97 83.1858 169.296 84.9852C167.806 86.0047 166.912 87.6257 166.075 89.2059C165.395 90.5074 164.704 91.8073 164.003 93.1055C162.875 95.2413 161.727 97.4128 161.252 99.778C161.152 100.293 161.091 100.814 161.069 101.338V101.363C161.069 101.552 161.069 101.741 161.069 101.929V102.169C161.069 102.347 161.069 102.52 161.099 102.679C161.13 102.837 161.125 102.888 161.14 102.995C161.155 103.102 161.181 103.341 161.211 103.504C161.242 103.667 161.303 103.953 161.365 104.177C161.39 104.274 161.426 104.366 161.456 104.458C161.507 104.631 161.569 104.799 161.635 104.967C161.671 105.054 161.706 105.146 161.747 105.232C161.824 105.411 161.916 105.584 162.008 105.742C162.048 105.813 162.079 105.88 162.12 105.946C162.262 106.183 162.419 106.411 162.589 106.629C163.682 107.99 165.289 108.857 166.479 110.131C166.479 110.182 166.479 110.233 166.479 110.279C166.479 110.422 166.479 110.559 166.479 110.702C166.542 113.544 167.299 116.328 168.685 118.811C170.071 121.294 172.043 123.401 174.43 124.949C174.43 125.143 174.456 125.342 174.466 125.536C174.566 127.049 174.547 128.567 174.41 130.077C174.202 129.833 173.942 129.638 173.649 129.508C173.355 129.377 173.037 129.314 172.716 129.323C172.496 129.312 172.277 129.331 172.062 129.379L172.016 129.343V129.389C170.893 129.665 169.51 130.832 168.188 134.15C168.188 134.15 164.167 138.677 161.104 138.488C158.042 138.3 150.289 143.198 150.289 143.198C150.289 143.198 142.725 148.102 141.102 153.098C140.195 155.93 139.107 158.702 137.846 161.396L128.496 180.639L126.77 195.906C126.77 195.906 127.725 202.696 127.536 203.731C127.347 204.766 131.461 214.099 131.461 214.099C131.461 214.099 145.053 237.95 150.606 239.174L151.004 238.893C151.241 239.017 151.493 239.111 151.754 239.174L152.897 238.368C152.966 239.266 152.937 240.168 152.81 241.06C152.045 243.415 153.096 258.784 154.433 261.796C155.771 264.809 155.296 304.309 155.296 304.309L155.107 307.796C155.107 307.796 155.107 307.908 155.153 308.102L155.107 308.928L155.245 308.999C155.388 310.105 155.341 311.227 155.107 312.317C154.627 313.847 154.433 318.169 154.433 318.169C154.433 318.169 150.611 342.576 152.423 347.48C154.234 352.384 155.776 357.756 155.776 357.756C155.776 357.756 157.69 363.873 155.868 364.918C154.046 365.963 148.865 367.717 149.932 370.266C150.902 372.621 154.581 378.931 155.128 379.854L155.082 380.338L154.331 388.458C154.453 389.531 154.744 390.577 155.194 391.558C156.016 393.327 157.613 395.162 160.65 394.963C161.16 394.927 161.752 394.866 162.324 394.789C167.882 394.045 174.727 391.568 174.727 391.568C174.371 391.342 174.045 391.074 173.757 390.768V390.768C173.484 390.503 173.267 390.186 173.121 389.836C172.974 389.485 172.9 389.108 172.904 388.729C172.986 387.25 170.215 380.206 169.526 378.472C169.418 378.223 169.362 378.08 169.362 378.08C169.362 378.08 175.681 371.484 174.63 365.637C174.63 365.637 167.637 361.559 169.939 359.321C172.241 357.083 176.355 350.656 176.355 350.656C176.355 350.656 176.543 326.621 176.355 323.032C176.158 320.542 176.276 318.036 176.707 315.575C176.783 315.203 176.875 314.841 176.972 314.484C180.156 314.958 183.369 315.202 186.588 315.213C187.762 315.213 188.956 315.213 190.161 315.141C190.161 315.481 190.176 315.848 190.207 316.242C190.472 322.196 190.967 332.636 191.37 336.515C191.942 342.076 195.101 357.063 195.101 357.063C195.101 357.063 189.074 360.927 196.153 370.449C196.153 370.449 196.153 373.9 195.683 374.4C195.182 376.033 194.778 377.694 194.473 379.375C194.177 381.169 194.055 382.984 194.535 383.927C195.683 386.18 202.573 385.996 202.573 385.996L202.742 385.966C204.043 385.831 205.357 385.956 206.609 386.334C207.861 386.711 209.026 387.332 210.035 388.163C212.653 390.263 222.591 389.34 227.97 388.672C230.078 388.407 231.487 388.163 231.487 388.163C231.555 387.924 231.579 387.676 231.558 387.429C231.502 386.108 230.466 383.213 223.443 380.629C223.443 380.629 216.839 376.194 216.931 372.33H216.793H216.027C216.583 372.299 216.941 372.33 216.941 372.33C216.941 372.33 214.353 362.9 215.41 362.135C216.466 361.37 213.302 350.921 213.302 350.921C213.302 350.921 211.49 333.385 211.393 332.157C211.397 331.103 211.557 330.055 211.867 329.047L211.393 319.433C211.393 319.433 211.301 316.237 211.393 315.197C211.377 314.295 211.304 313.394 211.173 312.501C211.127 312.144 211.081 311.772 211.03 311.405C213.506 310.778 215.114 310.197 215.114 310.197L214.828 276.732C216.931 272.654 217.318 263.708 217.308 257.361C217.308 253.283 217.124 250.266 217.124 250.266L219.998 245.581C219.998 245.581 220.661 239.974 219.61 238.745C219.146 238.19 219.355 237.614 219.738 237.14C219.936 236.982 220.146 236.839 220.365 236.712C220.365 236.712 220.335 236.666 220.299 236.599C220.5 236.432 220.713 236.28 220.937 236.146C220.937 236.146 219.916 234.566 220.83 233.898C221.687 234.479 222.453 234.917 223.035 235.274C222.994 235.646 222.953 235.86 222.953 235.86L223.198 235.351C223.76 235.667 224.102 235.86 224.102 235.86C224.102 235.86 228.603 226.904 228.506 225.584C228.409 224.264 231.569 218.702 231.569 218.702C231.569 218.702 231.951 215.781 233.676 214.558C235.402 213.335 235.014 204.47 235.014 204.47C235.014 204.47 235.493 199.852 236.642 197.966C237.79 196.08 235.595 193.536 235.595 193.536ZM149.462 189.606L149.549 191.742C149.039 190.921 148.671 190.33 148.671 190.33L149.462 189.606Z" fill="url(#paint0_linear)"/>
<path d="M224.347 231.991L223.244 236.681C223.244 236.681 214.414 232.18 212.822 226.461C211.23 220.741 215.486 218.57 215.486 218.57L223.714 222.051L224.347 231.991Z" fill="white"/>
<path opacity="0.1" d="M224.347 231.991L223.244 236.681C223.244 236.681 214.414 232.18 212.822 226.461C211.23 220.741 215.486 218.57 215.486 218.57L223.714 222.051L224.347 231.991Z" fill="black"/>
<path d="M174.793 391.598C174.793 391.598 166.627 394.596 161.012 394.973C158.032 395.172 156.465 393.347 155.658 391.588C155.218 390.611 154.934 389.57 154.816 388.504L155.546 380.425L155.934 376.123L167.862 373.028L169.551 378.187L169.709 378.58C170.388 380.302 173.108 387.312 173.027 388.774C173.023 389.149 173.096 389.521 173.24 389.867C173.384 390.212 173.596 390.526 173.864 390.788C174.138 391.097 174.45 391.369 174.793 391.598V391.598Z" fill="white"/>
<path d="M230.573 387.49C230.594 387.735 230.569 387.982 230.502 388.219C230.502 388.219 213.036 391.129 209.464 388.219C208.456 387.369 207.282 386.738 206.016 386.367C204.751 385.997 203.421 385.895 202.114 386.068C202.114 386.068 195.356 386.251 194.228 384.029C193.759 383.096 193.881 381.286 194.172 379.502C194.469 377.83 194.864 376.178 195.356 374.552L195.627 374.338L197.235 373.049L216.058 372.493H216.201C216.109 376.337 222.591 380.746 222.591 380.746C229.476 383.295 230.492 386.175 230.573 387.49Z" fill="white"/>
<path opacity="0.1" d="M230.573 387.49C230.591 387.735 230.565 387.982 230.497 388.219C230.497 388.219 213.036 391.129 209.464 388.219C208.457 387.369 207.284 386.739 206.019 386.369C204.754 385.998 203.426 385.896 202.119 386.068C202.119 386.068 195.356 386.251 194.234 384.029C193.764 383.091 193.881 381.286 194.172 379.502C196.775 379.762 200.884 380.409 202.497 381.954C204.936 384.304 209.071 386.649 211.607 386.832C213.593 386.96 225.469 387.337 230.573 387.49Z" fill="black"/>
<path opacity="0.1" d="M174.793 391.598C174.793 391.598 166.627 394.596 161.012 394.973C158.032 395.172 156.465 393.347 155.663 391.583C157.741 392.282 160.624 393.016 162.14 392.343C163.937 391.548 170.307 391.033 173.879 390.813C174.151 391.111 174.458 391.374 174.793 391.598V391.598Z" fill="black"/>
<path d="M186.909 150.054C180.172 147.439 171.506 138.799 173.67 134.762C174.151 133.743 174.436 132.644 174.512 131.52C174.651 129.995 174.672 128.461 174.573 126.932C174.422 124.429 174.12 121.937 173.67 119.47C173.67 119.47 194.703 119.944 193.478 123.038C193.121 123.945 193.065 125.52 193.162 127.284C193.259 129.048 193.514 131.041 193.779 132.728C194.147 135.042 194.514 136.806 194.514 136.806C194.514 136.806 193.228 138.606 192.473 138.702C191.717 138.799 196.576 153.781 186.909 150.054Z" fill="#CF6F80"/>
<path opacity="0.1" d="M169.694 378.58L169.536 378.753C163.248 371.158 155.643 380.624 155.643 380.624L155.531 380.425L155.919 376.123L167.846 373.028L169.536 378.187L169.694 378.58Z" fill="black"/>
<path opacity="0.1" d="M216.206 373.028C216.206 373.028 211.612 372.931 209.162 375.093C206.713 377.254 194.872 375.562 195.382 375.093C195.533 374.86 195.624 374.594 195.647 374.318L197.255 373.028L216.078 372.473C216.15 372.814 216.206 373.028 216.206 373.028Z" fill="black"/>
<path d="M177.518 313.383C177.176 314.227 176.916 315.103 176.743 315.998C176.317 318.448 176.199 320.941 176.39 323.42C176.579 326.988 176.39 350.9 176.39 350.9C176.39 350.9 172.353 357.277 170.102 359.525C167.852 361.773 174.696 365.81 174.696 365.81C175.717 371.621 169.531 378.187 169.531 378.187C163.243 370.592 155.638 380.063 155.638 380.063C155.638 380.063 151.504 372.926 150.473 370.378C149.442 367.829 154.51 366.065 156.291 365.03C158.073 363.996 156.204 357.894 156.204 357.894C156.204 357.894 154.699 352.547 152.912 347.668C151.126 342.79 154.883 318.506 154.883 318.506C154.883 318.506 155.077 314.193 155.541 312.689C155.775 311.604 155.822 310.487 155.679 309.386C155.648 309.014 155.612 308.703 155.587 308.494C155.561 308.285 155.541 308.188 155.541 308.188L155.612 308.066L158.164 303.315C158.164 303.315 178.743 310.391 177.518 313.383Z" fill="#458FF6"/>
<path d="M216.206 372.468C216.206 372.468 211.612 372.371 209.162 374.507C206.713 376.642 194.872 374.976 195.382 374.507C195.892 374.038 195.852 370.566 195.852 370.566C188.905 361.095 194.831 357.252 194.831 357.252C194.831 357.252 191.728 342.342 191.166 336.811C190.773 332.947 190.288 322.563 190.028 316.635C189.916 314.086 189.849 312.333 189.849 312.333L195.525 311.191L196.255 311.043L209.943 308.301C209.943 308.301 210.321 310.849 210.576 312.934C210.703 313.824 210.775 314.722 210.791 315.621C210.699 316.64 210.791 319.831 210.791 319.831L211.255 329.399C210.952 330.403 210.795 331.445 210.791 332.493C210.882 333.712 212.664 351.155 212.664 351.155C212.664 351.155 215.762 361.564 214.705 362.313C213.649 363.063 216.206 372.468 216.206 372.468Z" fill="#458FF6"/>
<path opacity="0.1" d="M193.478 123.038C193.121 123.945 193.065 125.52 193.162 127.284C190.344 128.978 187.106 129.845 183.818 129.783C180.529 129.722 177.325 128.736 174.573 126.937C174.422 124.432 174.12 121.939 173.67 119.47C173.67 119.47 194.703 119.933 193.478 123.038Z" fill="black"/>
<path d="M201.609 111.772C201.613 113.609 201.323 115.435 200.751 117.181C199.473 121.092 196.85 124.427 193.348 126.594C189.846 128.762 185.69 129.623 181.613 129.026C177.537 128.429 173.803 126.411 171.072 123.331C168.341 120.25 166.788 116.304 166.688 112.19C166.688 112.048 166.688 111.915 166.688 111.772C166.648 109.457 167.071 107.157 167.93 105.006C168.79 102.855 170.07 100.897 171.696 99.2456C173.321 97.5942 175.26 96.2825 177.398 95.3871C179.537 94.4918 181.832 94.0307 184.151 94.0307C186.47 94.0307 188.765 94.4918 190.903 95.3871C193.042 96.2825 194.98 97.5942 196.606 99.2456C198.231 100.897 199.511 102.855 200.371 105.006C201.231 107.157 201.653 109.457 201.614 111.772H201.609Z" fill="#CF6F80"/>
<path opacity="0.1" d="M186.909 150.054C180.172 147.439 171.506 138.799 173.67 134.762C174.151 133.743 174.436 132.644 174.512 131.52L183.735 139.09L189.441 143.764L193.779 132.733C194.147 135.047 194.514 136.811 194.514 136.811C194.514 136.811 193.228 138.611 192.473 138.707C191.717 138.804 196.576 153.781 186.909 150.054Z" fill="black"/>
<path d="M210.76 183.509L203.058 312.73L193.014 313.388L167.004 238.46L171.271 149.504L172.169 130.71L183.735 140.196L189.446 144.87L193.912 133.518L202.216 140.746L210.76 183.509Z" fill="#458FF6"/>
<path opacity="0.1" d="M177.518 313.383C177.176 314.228 176.916 315.103 176.743 315.998C169.434 314.871 162.335 312.656 155.684 309.427L155.546 309.356L155.592 308.535L155.618 308.107L158.17 303.356C158.17 303.356 178.743 310.391 177.518 313.383Z" fill="black"/>
<path opacity="0.1" d="M195.642 316.018C193.774 316.335 191.889 316.55 189.997 316.66C189.885 314.112 189.819 312.358 189.819 312.358L195.494 311.216L195.642 316.018Z" fill="black"/>
<path opacity="0.1" d="M210.546 312.96C206.917 313.903 201.313 314.963 196.296 314.3L196.224 311.068L209.913 308.326C209.913 308.326 210.29 310.849 210.546 312.96Z" fill="black"/>
<path opacity="0.1" d="M196.204 314.892C175.278 318.46 156.113 308.229 156.113 308.229L156.296 304.763C156.296 304.763 156.771 265.466 155.454 262.454C154.137 259.441 153.111 244.164 153.857 241.819C154.602 239.474 151.136 204.312 151.136 204.312L150.575 190.039L130.027 181.725L139.214 162.599C140.454 159.918 141.522 157.16 142.409 154.341C144.006 149.377 151.422 144.498 151.422 144.498C151.422 144.498 159.027 139.625 162.033 139.809C165.039 139.992 168.979 135.496 168.979 135.496C171.889 128.089 174.522 131.444 174.522 131.444C174.522 131.795 174.522 131.444 174.379 132.54C173.359 140.67 190.885 166.361 191.135 166.815L192.804 207.421L194.494 258.809L196.204 314.892Z" fill="black"/>
<path d="M195.642 314.892C174.716 318.46 155.546 308.229 155.546 308.229L155.735 304.763C155.735 304.763 156.21 265.466 154.888 262.454C153.566 259.441 152.545 244.164 153.295 241.819C154.046 239.474 150.575 204.312 150.575 204.312L150.008 190.039L129.45 181.694L138.637 162.569C139.875 159.886 140.942 157.128 141.832 154.311C143.424 149.346 150.845 144.468 150.845 144.468C150.845 144.468 158.45 139.594 161.451 139.778C164.452 139.961 168.398 135.465 168.398 135.465C171.312 128.059 174.522 131.413 174.522 131.413C174.522 131.765 174.216 131.923 174.379 132.509C176.625 140.395 190.324 166.331 190.574 166.784L192.263 207.391L193.953 258.779L195.642 314.892Z" fill="white"/>
<path opacity="0.1" d="M190.003 167.942C187.752 167.004 175.829 153.409 175.829 153.409V150.314C175.395 149.295 172.818 149.917 170.725 150.63L171.623 131.836L172.644 132.682C174.88 140.563 189.742 167.488 190.003 167.942Z" fill="black"/>
<path d="M190.569 166.815C188.313 165.877 176.39 152.282 176.39 152.282V149.188C175.957 148.168 173.379 148.79 171.286 149.504L172.19 130.71L173.211 131.556C175.451 139.436 190.319 166.366 190.569 166.815Z" fill="white"/>
<path opacity="0.1" d="M156.113 234.617C156.393 234.617 170.664 233.118 170.664 233.118C170.664 233.118 179.305 250.087 178.738 254.216C178.172 258.345 177.146 262 173.67 261.353C170.194 260.705 154.964 261.863 154.964 261.863L156.113 234.617Z" fill="black"/>
<path d="M155.546 233.49C155.827 233.49 170.097 231.991 170.097 231.991C170.097 231.991 178.733 248.966 178.172 253.09C177.61 257.214 176.574 260.874 173.103 260.226C169.633 259.579 154.398 260.736 154.398 260.736L155.546 233.49Z" fill="white"/>
<path d="M166.3 225.523C166.3 225.523 179.397 232.552 179.677 234.698C179.958 236.844 173.012 233.76 171.511 233.388C170.523 233.15 169.518 232.994 168.505 232.919L158.496 233.189L166.3 225.523Z" fill="#CF6F80"/>
<path opacity="0.1" d="M186.348 168.818C187.109 168.818 187.726 168.202 187.726 167.442C187.726 166.682 187.109 166.066 186.348 166.066C185.587 166.066 184.97 166.682 184.97 167.442C184.97 168.202 185.587 168.818 186.348 168.818Z" fill="black"/>
<path d="M186.348 168.258C187.109 168.258 187.726 167.641 187.726 166.881C187.726 166.121 187.109 165.505 186.348 165.505C185.587 165.505 184.97 166.121 184.97 166.881C184.97 167.641 185.587 168.258 186.348 168.258Z" fill="#3F3D56"/>
<path opacity="0.1" d="M188.885 228.398C189.646 228.398 190.263 227.781 190.263 227.021C190.263 226.261 189.646 225.645 188.885 225.645C188.124 225.645 187.507 226.261 187.507 227.021C187.507 227.781 188.124 228.398 188.885 228.398Z" fill="black"/>
<path d="M188.885 227.832C189.646 227.832 190.263 227.216 190.263 226.455C190.263 225.695 189.646 225.079 188.885 225.079C188.124 225.079 187.507 225.695 187.507 226.455C187.507 227.216 188.124 227.832 188.885 227.832Z" fill="#3F3D56"/>
<path opacity="0.1" d="M187.721 198.608C188.482 198.608 189.099 197.992 189.099 197.232C189.099 196.472 188.482 195.855 187.721 195.855C186.96 195.855 186.343 196.472 186.343 197.232C186.343 197.992 186.96 198.608 187.721 198.608Z" fill="black"/>
<path d="M187.721 198.047C188.482 198.047 189.099 197.431 189.099 196.671C189.099 195.911 188.482 195.295 187.721 195.295C186.96 195.295 186.343 195.911 186.343 196.671C186.343 197.431 186.96 198.047 187.721 198.047Z" fill="#3F3D56"/>
<path d="M219.488 232.634C219.488 232.634 220.427 234.041 219.488 234.698C218.548 235.356 219.579 236.946 219.579 236.946C219.579 236.946 217.237 238.317 218.268 239.551C219.299 240.784 218.645 246.356 218.645 246.356L215.828 251.015C215.828 251.015 215.996 254.018 216.007 258.075C216.007 264.406 215.634 273.306 213.572 277.364L213.858 310.656C213.858 310.656 203.992 314.254 195.734 313.158L194.509 259.737C194.509 259.737 196.295 229.443 196.954 223.631C197.339 220.615 197.496 217.573 197.423 214.532C197.423 214.532 197.143 205.439 196.199 201.218C196.199 201.218 195.178 182.933 195.076 177.871C195.03 175.45 195.157 168.385 195.3 161.667C195.458 154.321 195.637 147.394 195.637 147.394L193.774 132.672C193.774 132.672 195.637 132.483 196.199 133.233C196.45 133.467 196.723 133.677 197.015 133.86V133.86C200.231 136.031 211.592 142.709 211.592 142.709C211.592 142.709 217.88 145.207 219.385 148.785C220.891 152.364 221.937 154.902 222.667 155.922C223.397 156.941 223.795 161.733 223.795 161.733C223.795 161.733 225.959 170.551 227.649 172.045C229.338 173.539 230.573 183.04 230.573 183.04L215.644 194.764C215.644 194.764 214.333 214.267 214.052 215.022C213.771 215.776 219.488 232.634 219.488 232.634Z" fill="white"/>
<path d="M220.054 232.634C220.054 232.634 220.988 234.041 220.054 234.698C219.12 235.356 220.141 236.946 220.141 236.946C220.141 236.946 217.814 238.333 218.834 239.566C219.855 240.8 219.212 246.371 219.212 246.371L216.395 251.03C216.395 251.03 216.563 254.033 216.578 258.09C216.578 264.421 216.206 273.322 214.144 277.379L214.425 310.671C214.425 310.671 204.543 314.27 196.296 313.174L195.076 259.752C195.076 259.752 196.862 229.458 197.521 223.647C197.906 220.63 198.062 217.588 197.985 214.548C197.985 214.548 197.704 205.454 196.765 201.233C196.765 201.233 195.744 182.949 195.637 177.887C195.591 175.465 195.724 168.4 195.862 161.682C196.02 154.336 196.199 147.409 196.199 147.409L193.739 132.489C193.739 132.489 196.199 132.489 196.765 133.248C197.014 133.485 197.288 133.696 197.582 133.875C200.797 136.047 212.164 142.724 212.164 142.724C212.164 142.724 218.446 145.222 219.952 148.801C221.458 152.379 222.504 154.917 223.239 155.937C223.974 156.956 224.362 161.748 224.362 161.748C224.362 161.748 226.526 170.567 228.215 172.06C229.905 173.554 231.125 183.035 231.125 183.035L216.196 194.759C216.196 194.759 214.884 214.262 214.598 215.017C214.312 215.771 220.054 232.634 220.054 232.634Z" fill="white"/>
<path opacity="0.1" d="M202.175 151.737L203.523 155.662L196.428 162.798C196.586 155.458 196.765 148.525 196.765 148.525L194.305 133.605C194.305 133.605 196.765 133.605 197.332 134.364C197.58 134.601 197.854 134.81 198.148 134.986L204.181 152.369L202.175 151.737Z" fill="black"/>
<path d="M201.609 150.61L202.961 154.535L195.867 161.672C196.025 154.326 196.204 147.399 196.204 147.399L193.739 132.478C193.739 132.478 196.204 132.478 196.765 133.238C197.015 133.474 197.289 133.684 197.582 133.865L203.62 151.242L201.609 150.61Z" fill="white"/>
<path opacity="0.1" d="M201.609 111.772C201.613 113.609 201.323 115.435 200.751 117.181C200.655 117.196 200.556 117.191 200.462 117.168C200.367 117.144 200.278 117.102 200.2 117.043C200.067 112.455 197.806 108.148 195.025 104.483C194.244 103.376 193.297 102.396 192.218 101.577C191.126 100.759 189.769 100.375 188.41 100.502C186.879 100.711 185.526 101.751 183.98 101.883C181.938 102.052 180.111 100.64 178.085 100.568C177.261 100.576 176.449 100.759 175.701 101.105C174.954 101.452 174.289 101.953 173.752 102.577C172.687 103.834 171.896 105.299 171.429 106.879C170.627 109.274 170.19 111.776 170.133 114.301C170.107 115.728 169.97 117.517 168.643 118.037C168.743 116.988 168.623 115.929 168.292 114.927C167.961 113.926 167.425 113.005 166.718 112.221L166.688 112.19C166.688 112.048 166.688 111.915 166.688 111.772C166.648 109.457 167.071 107.157 167.93 105.006C168.79 102.855 170.07 100.897 171.696 99.2456C173.321 97.5942 175.26 96.2825 177.398 95.3871C179.537 94.4918 181.832 94.0307 184.151 94.0307C186.47 94.0307 188.765 94.4918 190.903 95.3871C193.042 96.2825 194.98 97.5942 196.606 99.2456C198.231 100.897 199.511 102.855 200.371 105.006C201.231 107.157 201.653 109.457 201.614 111.772H201.609Z" fill="black"/>
<path d="M191.38 84.0778C188.728 82.8318 185.712 82.5961 182.898 83.4151C181.484 83.8331 180.152 84.5111 178.718 84.8526C175.655 85.5918 172.083 84.7915 169.454 86.5807C167.994 87.6002 167.117 89.211 166.3 90.7759L164.258 94.6602C163.146 96.7858 162.023 98.9471 161.558 101.287C161.094 103.627 161.375 106.247 162.86 108.128C163.942 109.499 165.539 110.36 166.713 111.65C167.417 112.435 167.95 113.356 168.28 114.356C168.611 115.355 168.73 116.413 168.632 117.461C169.965 116.951 170.092 115.157 170.123 113.73C170.18 111.205 170.617 108.703 171.419 106.308C171.885 104.728 172.676 103.263 173.741 102.006C174.28 101.383 174.944 100.882 175.691 100.535C176.439 100.189 177.251 100.006 178.075 99.9972C180.116 100.069 181.948 101.475 183.97 101.307C185.501 101.18 186.858 100.135 188.4 99.931C189.759 99.8025 191.117 100.186 192.207 101.007C193.286 101.824 194.232 102.804 195.009 103.912C197.796 107.577 200.057 111.874 200.19 116.472C200.766 116.895 201.598 116.345 201.884 115.692C202.17 115.04 202.18 114.275 202.543 113.653C202.961 112.935 203.762 112.552 204.39 112.012C205.983 110.641 206.381 108.332 206.319 106.237C206.258 104.141 205.85 102.016 206.248 99.9565C206.488 98.6923 207.029 97.5097 207.325 96.2608C207.621 95.0119 207.657 93.6101 206.957 92.5345C205.937 90.9543 203.788 90.6434 201.915 90.4955C199.787 90.312 197.883 90.5465 196.525 88.7573C195.888 87.8236 195.171 86.947 194.381 86.1372C194.111 85.8721 191.38 84.19 191.38 84.0778Z" fill="#512E4E"/>
<path opacity="0.1" d="M135.906 191.573L130.573 181.725L128.883 196.921C128.883 196.921 129.822 203.67 129.634 204.705C129.445 205.739 133.482 215.017 133.482 215.017C133.482 215.017 146.818 238.74 152.264 239.964L170.664 226.833L165.784 220.644C165.784 220.644 164.095 219.987 163.671 220.644C163.671 220.644 154.612 205.077 153.673 203.95C152.734 202.824 152.918 200.576 152.918 200.576C152.918 200.576 151.509 199.077 151.978 197.67C152.448 196.263 149.258 191.385 149.258 191.385L152.167 188.668L135.906 191.573Z" fill="black"/>
<path d="M130.853 180.604L129.445 181.725L127.755 196.921C127.755 196.921 128.694 203.67 128.506 204.705C128.317 205.739 132.359 215.017 132.359 215.017C132.359 215.017 145.69 238.74 151.136 239.964L169.541 226.833L164.657 220.644C164.657 220.644 162.967 219.987 162.543 220.644C162.543 220.644 153.484 205.077 152.545 203.95C151.606 202.824 151.795 200.576 151.795 200.576C151.795 200.576 150.386 199.077 150.856 197.67C151.325 196.263 148.13 191.385 148.13 191.385L151.039 188.668L130.853 180.604Z" fill="white"/>
<path opacity="0.1" d="M218.268 240.132C219.288 241.371 218.645 246.932 218.645 246.932L215.828 251.591C215.828 251.591 215.996 254.599 216.007 258.651L211.27 260.129C210.842 260.263 210.388 260.292 209.947 260.215C209.505 260.138 209.088 259.956 208.731 259.685C208.374 259.414 208.087 259.062 207.894 258.658C207.701 258.254 207.607 257.809 207.621 257.362L208.438 231.053L219.488 235.274C218.548 235.927 219.579 237.527 219.579 237.527C219.579 237.527 217.237 238.893 218.268 240.132Z" fill="black"/>
<path d="M218.834 239.566C219.855 240.805 219.212 246.371 219.212 246.371L216.395 251.03C216.395 251.03 216.563 254.033 216.578 258.09L211.755 259.594C211.336 259.724 210.892 259.753 210.459 259.676C210.027 259.6 209.619 259.422 209.27 259.157C208.92 258.892 208.639 258.547 208.45 258.151C208.261 257.756 208.169 257.321 208.182 256.882L209.004 230.493L220.059 234.713C219.115 235.366 220.146 236.961 220.146 236.961C220.146 236.961 217.813 238.333 218.834 239.566Z" fill="white"/>
<path d="M222.494 227.026C222.494 227.026 221.743 231.813 219.865 232.093C217.987 232.374 217.145 239.836 215.272 239.571C213.399 239.306 214.639 232.634 214.705 231.339C214.772 230.044 212.664 224.682 214.241 223.463C215.818 222.245 220.809 223.463 220.809 223.463L222.494 227.026Z" fill="#CF6F80"/>
<path opacity="0.1" d="M226.49 190.167L230.032 183.03C230.032 183.03 231.441 188.469 231.441 191.375C231.441 194.28 233.411 194.566 233.411 194.566C233.411 194.566 235.57 197.114 234.432 198.97C233.294 200.825 232.834 205.444 232.834 205.444C232.834 205.444 233.207 214.257 231.517 215.475C229.828 216.694 229.476 219.604 229.476 219.604C229.476 219.604 226.373 225.135 226.47 226.45C226.567 227.766 222.152 236.671 222.152 236.671C222.152 236.671 224.311 225.604 211.73 220.823C211.73 220.823 211.633 217.066 212.572 216.036C213.511 215.007 214.976 214.538 214.057 209.333C213.138 204.129 213.792 197.91 213.792 196.661C213.792 195.412 216.609 187.623 216.609 187.623L226.49 190.167Z" fill="black"/>
<path d="M228.021 182.011L231.114 183.03C231.114 183.03 232.528 188.469 232.528 191.375C232.528 194.28 234.498 194.566 234.498 194.566C234.498 194.566 236.657 197.114 235.519 198.97C234.381 200.825 233.926 205.444 233.926 205.444C233.926 205.444 234.299 214.257 232.61 215.475C230.92 216.694 230.543 219.604 230.543 219.604C230.543 219.604 227.445 225.135 227.542 226.45C227.638 227.766 223.219 236.671 223.219 236.671C223.219 236.671 225.383 225.604 212.796 220.823C212.796 220.823 212.705 217.066 213.644 216.036C214.583 215.007 216.048 214.538 215.129 209.333C214.21 204.129 214.863 197.91 214.863 196.661C214.863 195.412 217.681 187.623 217.681 187.623L228.021 182.011Z" fill="white"/>
<path opacity="0.1" d="M159.706 366.983C159.706 366.983 164.636 363.889 167.872 366.137C171.108 368.385 159.706 366.983 159.706 366.983Z" fill="black"/>
<path opacity="0.1" d="M198.016 357.415C198.016 357.415 202.379 356.854 206.044 360.794C209.709 364.735 198.016 357.415 198.016 357.415Z" fill="black"/>
<g opacity="0.1">
<path opacity="0.1" d="M204.4 110.896C203.773 111.436 202.966 111.823 202.548 112.542C202.19 113.159 202.18 113.918 201.894 114.581C201.609 115.244 200.777 115.784 200.2 115.366C200.067 110.778 197.801 106.471 195.02 102.801C194.242 101.693 193.297 100.713 192.217 99.8953C191.125 99.075 189.766 98.6915 188.405 98.8197C186.874 99.0287 185.526 100.069 183.98 100.196C181.938 100.369 180.106 98.9573 178.08 98.886C177.256 98.8942 176.444 99.078 175.698 99.4253C174.951 99.7726 174.288 100.275 173.752 100.899C172.686 102.155 171.895 103.618 171.429 105.197C170.627 107.592 170.19 110.094 170.133 112.619C170.102 114.041 169.97 115.815 168.653 116.345C168.683 116.721 168.683 117.1 168.653 117.476C169.98 116.967 170.113 115.172 170.143 113.745C170.2 111.22 170.637 108.718 171.44 106.323C171.905 104.743 172.696 103.278 173.762 102.021C174.299 101.398 174.963 100.897 175.709 100.551C176.455 100.205 177.267 100.021 178.09 100.013C180.131 100.084 181.969 101.491 183.99 101.323C185.521 101.195 186.879 100.15 188.415 99.9462C189.776 99.818 191.135 100.202 192.228 101.022C193.307 101.84 194.252 102.82 195.03 103.927C197.811 107.592 200.077 111.89 200.21 116.488C200.787 116.911 201.619 116.36 201.905 115.708C202.19 115.055 202.201 114.291 202.558 113.669C202.976 112.95 203.783 112.568 204.411 112.027C206.003 110.656 206.401 108.347 206.34 106.252C206.34 106.186 206.34 106.119 206.34 106.058C206.243 107.873 205.758 109.723 204.4 110.896Z" fill="black"/>
<path opacity="0.1" d="M166.724 110.534C165.55 109.244 163.947 108.383 162.87 107.016C161.963 105.807 161.445 104.351 161.385 102.842C161.224 104.728 161.752 106.609 162.87 108.138C163.947 109.509 165.55 110.371 166.724 111.66C167.851 112.922 168.527 114.521 168.648 116.207C168.726 115.181 168.596 114.149 168.265 113.174C167.935 112.2 167.41 111.301 166.724 110.534V110.534Z" fill="black"/>
<path opacity="0.1" d="M207.335 95.1444C207.034 96.3933 206.498 97.581 206.253 98.8401C206.108 99.6814 206.055 100.536 206.095 101.389C206.112 100.903 206.165 100.419 206.253 99.9412C206.498 98.677 207.034 97.4944 207.335 96.2455C207.511 95.5567 207.568 94.843 207.504 94.1351C207.472 94.4752 207.416 94.8125 207.335 95.1444V95.1444Z" fill="black"/>
</g>
<path opacity="0.1" d="M67.7439 387.709C95.2103 387.709 117.476 384.137 117.476 379.732C117.476 375.326 95.2103 371.754 67.7439 371.754C40.2775 371.754 18.0116 375.326 18.0116 379.732C18.0116 384.137 40.2775 387.709 67.7439 387.709Z" fill="#458FF6"/>
<path d="M69.3465 226.909H66.1464V298.87H69.3465V226.909Z" fill="#535461"/>
<path d="M89.4559 298.651L89.2568 301.893L88.971 306.481L88.8536 308.387L88.5729 312.975L88.4504 314.881L88.1646 319.469L84.9389 371.499C84.7987 373.738 83.8097 375.839 82.1731 377.375C80.5365 378.911 78.3754 379.766 76.1296 379.767H59.3582C57.1129 379.766 54.9524 378.911 53.3167 377.375C51.6809 375.838 50.693 373.737 50.554 371.499L47.3437 319.433L47.0579 314.846L46.9405 312.939L46.6547 308.352L46.5373 306.445L46.2515 301.857L46.0473 298.615C46.0118 297.991 46.1044 297.367 46.3193 296.78C46.5342 296.193 46.867 295.656 47.2971 295.202C47.7272 294.748 48.2457 294.387 48.8207 294.14C49.3957 293.893 50.015 293.767 50.6408 293.768H84.944C85.5674 293.773 86.1831 293.906 86.7531 294.158C87.3231 294.41 87.8353 294.777 88.2581 295.234C88.6808 295.692 89.0052 296.231 89.2113 296.819C89.4173 297.406 89.5005 298.03 89.4559 298.651V298.651Z" fill="#3F3D56"/>
<path d="M89.2567 301.893L88.9709 306.465H46.5168L46.231 301.893H89.2567Z" fill="#9D9CB5"/>
<path d="M88.8535 308.372L88.5728 312.949H46.92L46.6342 308.372H88.8535Z" fill="#9D9CB5"/>
<path d="M88.4504 314.861L88.1697 319.433H47.3233L47.0375 314.861H88.4504Z" fill="#9D9CB5"/>
<path d="M41.3466 253.88C59.9808 267.347 67.7592 288.41 67.7592 288.41C67.7592 288.41 45.3021 287.641 26.6627 274.173C8.02327 260.705 0.260254 239.648 0.260254 239.648C0.260254 239.648 22.7072 240.412 41.3466 253.88Z" fill="#458FF6"/>
<path d="M0.244995 239.648C0.244995 239.648 23.5596 252.57 31.0367 263.269C38.5139 273.969 67.7592 288.41 67.7592 288.41" stroke="#535461" stroke-width="2" stroke-miterlimit="10"/>
<path d="M53.3765 226.751C63.5179 234.076 67.7592 245.54 67.7592 245.54C67.7592 245.54 55.5354 245.122 45.3889 237.797C35.2424 230.472 31.0112 219.003 31.0112 219.003C31.0112 219.003 43.2299 219.421 53.3765 226.751Z" fill="#458FF6"/>
<path d="M31.0112 219.003C31.0112 219.003 43.6995 226.037 47.7673 231.859C51.8351 237.68 67.7592 245.54 67.7592 245.54" stroke="#535461" stroke-width="2" stroke-miterlimit="10"/>
<path d="M82.4839 244.959C70.8318 257.749 68.3666 274.464 68.3666 274.464C68.3666 274.464 84.796 270.437 96.438 257.642C108.08 244.847 110.555 228.138 110.555 228.138C110.555 228.138 94.1361 232.17 82.4839 244.959Z" fill="#458FF6"/>
<path d="M110.566 228.143C110.566 228.143 95.3866 241.253 91.528 250.286C87.6695 259.319 68.3666 274.464 68.3666 274.464" stroke="#535461" stroke-width="2" stroke-miterlimit="10"/>
<path d="M510.22 240.458C510.22 240.458 501.794 198.588 505.019 193.378C505.019 193.378 505.137 188.535 504.943 182.362C504.943 182.128 504.943 181.893 504.943 181.654C505.51 182.032 506.102 182.372 506.714 182.673C509.686 184.198 513.098 184.638 516.36 183.917L513.808 181.078C513.196 180.4 512.558 179.666 512.425 178.769C512.293 177.871 512.66 177.071 512.976 176.271C515.401 170.154 515.528 162.462 510.858 157.792C506.913 153.867 505.954 148.8 501.671 145.217C498.543 142.592 496.823 138.743 495.2 135.022C493.827 131.877 492.444 128.706 491.658 125.372C491.045 122.768 490.8 120.071 489.958 117.527C489.116 114.984 487.539 112.512 485.074 111.375C484.196 110.972 483.221 110.743 482.419 110.207C481.368 109.499 480.735 108.347 479.975 107.338C476.111 102.24 463.173 105.243 457.048 107.312C455.383 107.833 453.841 108.686 452.516 109.82L452.572 109.728C452.618 109.652 452.674 109.575 452.725 109.499C452.055 110.04 451.476 110.686 451.01 111.41C450.117 112.822 449.744 114.469 448.999 115.998C448.101 117.808 443.104 122.859 445.253 124.893C445.404 125.03 445.576 125.14 445.763 125.22C446.57 125.555 447.458 125.644 448.315 125.474L448.223 125.694C447.49 127.488 447.113 129.408 447.116 131.347C447.116 139.722 454.032 146.512 462.57 146.512C464.176 146.513 465.772 146.267 467.302 145.783C467.337 145.976 467.368 146.17 467.404 146.364C467.404 146.44 467.429 146.517 467.44 146.593L467.169 146.97C467.156 146.947 467.14 146.925 467.123 146.904L459.11 158.088C457.885 158.95 450.832 164.047 450.433 167.87C450.015 172.055 449.596 176.954 449.596 176.954L449.54 178.004C449.19 178.296 448.781 178.509 448.34 178.628C447.899 178.747 447.438 178.769 446.988 178.692C444.487 178.284 444.487 187.868 444.487 187.868C444.487 187.868 442.824 189.397 441.68 188.071C440.537 186.746 437.515 191.237 437.515 191.237L418.58 192.053L418.146 192.078L417.125 188.923C417.016 188.59 416.779 188.314 416.466 188.154C416.154 187.995 415.791 187.965 415.456 188.071C415.377 188.097 415.301 188.13 415.227 188.168L415.155 188.209L415.023 188.301L414.956 188.362C414.92 188.395 414.886 188.431 414.854 188.469L414.793 188.54L414.762 188.571C414.644 188.734 414.566 188.922 414.535 189.12C414.503 189.318 414.518 189.521 414.579 189.713L415.456 192.42C411.802 193.154 408.066 195.223 411.113 200.922L395.669 198.073L400.665 202.263L426.46 207.579C426.118 208.191 426.343 209.078 427.41 210.327C432.003 215.715 440.374 217.178 443.742 217.555C444.632 219.543 445.743 221.424 447.055 223.162L446.764 228.53C446.764 228.53 438.235 269.442 436.673 271.517C437.462 270.625 438.183 269.676 438.832 268.678C436.357 277.084 432.896 288.589 431.988 290.312C430.528 293.064 429.176 304.202 430.84 304.916C431.35 305.135 432.81 305.028 434.892 304.87V305.793L434.8 340.756C434.8 340.756 435.219 362.201 434.07 364.245C432.922 366.289 432.616 370.576 432.616 370.576C432.616 370.576 428.022 379.033 424.383 382.433C424.358 382.46 424.331 382.484 424.302 382.505L424.189 381.709C424.189 381.709 419.815 387.225 410.138 386.914C410.138 386.914 404.315 390.696 412.95 390.9C421.586 391.104 432.616 390.594 432.616 390.594C432.616 390.594 440.318 378.87 446.769 380.399V389.284H448.744V380.257C449.66 379.654 450.444 378.872 451.049 377.959C451.653 377.045 452.065 376.018 452.261 374.94C452.43 373.829 452.306 372.693 451.901 371.645C451.497 370.596 450.825 369.671 449.954 368.961C449.562 368.607 449.248 368.176 449.031 367.695C448.814 367.215 448.699 366.694 448.693 366.167L448.622 366.228C448.622 366.05 448.576 365.866 448.555 365.678C447.989 361.09 447.279 351.624 449.785 344.62C453.22 335.016 454.261 321.641 451.76 313.678C450.953 311.133 450.291 308.545 449.775 305.925C449.714 305.594 449.658 305.278 449.607 304.982C451.316 305.213 453.009 305.554 454.675 306.002C460.468 307.597 473.141 307.893 483.961 307.806C483.986 308.102 484.017 308.413 484.053 308.724C484.246 310.885 484.649 313.022 485.257 315.106C486.615 319.184 487.238 337.162 487.238 337.162C487.238 337.162 488.988 351.945 488.034 357.96C487.523 361.304 487.013 364.663 486.722 368.038V368.104C486.722 368.104 483.854 376.26 481.756 380.69C481.705 380.802 481.649 380.914 481.598 381.021C481.039 381.072 480.488 381.194 479.959 381.383C479.959 381.383 477.147 386.99 474.345 387.918C471.543 388.846 472.472 391.899 478.816 390.778C485.16 389.656 494.74 388.739 494.74 388.739L495.154 383.019L497.103 380.583L496.593 386.287L498.67 385.879L498.395 378.941L501.585 374.955C501.585 374.955 505.438 371.53 499.711 364.791V364.939C499.65 364.842 499.594 364.74 499.528 364.643V364.612C498.578 363.144 497.823 360.407 499.206 355.549C501.707 346.771 503.162 338.804 503.162 338.804C503.162 338.804 508.745 317.461 502.034 307.363H502.33C501.642 305.942 501.156 304.432 500.885 302.877C500.851 302.693 500.821 302.505 500.793 302.311C505.76 302.026 510.634 301.128 514.61 299.191C514.594 299.171 512.201 248.522 510.22 240.458ZM447.172 205.133V205.235L446.151 205.286L447.172 205.133ZM443.671 205.617C443.503 205.654 443.346 205.729 443.211 205.836C442.773 206.456 442.497 207.177 442.41 207.931L440.818 207.574C440.818 207.574 439.7 207.335 438.092 207.065L437.332 206.3C439.424 206.127 441.599 205.872 443.671 205.617V205.617Z" fill="url(#paint1_linear)"/>
<path d="M496.358 379.013L495.751 386.236L497.787 385.828L497.481 377.993L496.358 379.013Z" fill="#1D2366"/>
<path d="M449.897 344.717C447.442 351.701 448.137 361.126 448.688 365.703C448.892 367.396 449.081 368.425 449.081 368.425C449.081 368.425 445.411 376.775 445.105 377.091C444.799 377.407 434.305 383.804 434.305 383.804L426.971 388.081C426.971 388.081 419.529 384.824 423.097 383.702C423.826 383.41 424.482 382.963 425.021 382.392C428.594 379.003 433.08 370.576 433.08 370.576C433.08 370.576 433.386 366.3 434.509 364.266C435.632 362.232 435.224 340.858 435.224 340.858L435.311 306.017V301.475L449.27 301.577C449.358 303.119 449.559 304.652 449.872 306.165C450.373 308.775 451.022 311.355 451.816 313.892C454.277 321.839 453.256 335.149 449.897 344.717Z" fill="#FFB0B1"/>
<path opacity="0.1" d="M449.081 368.425C449.081 368.425 445.411 376.775 445.105 377.091C444.799 377.407 434.305 383.804 434.305 383.804L426.971 388.081C426.971 388.081 419.529 384.824 423.097 383.702C423.826 383.41 424.482 382.963 425.021 382.392L425.338 384.62L427.782 384.518L448.708 365.713C448.892 367.396 449.081 368.425 449.081 368.425Z" fill="black"/>
<path d="M448.826 366.188L427.782 385.12L425.338 385.222L424.827 381.653C424.827 381.653 420.55 387.148 411.047 386.843C411.047 386.843 405.341 390.61 413.798 390.813C422.255 391.017 433.055 390.508 433.055 390.508C433.055 390.508 440.598 378.783 446.912 380.313V389.167H448.851V380.231C449.753 379.625 450.523 378.843 451.114 377.932C451.705 377.02 452.106 375.999 452.291 374.93C452.459 373.828 452.34 372.701 451.946 371.659C451.552 370.616 450.896 369.692 450.04 368.976C449.659 368.618 449.354 368.186 449.145 367.707C448.936 367.227 448.827 366.71 448.826 366.188V366.188Z" fill="#1D2366"/>
<path d="M498.298 355.605C496.94 360.448 497.68 363.175 498.609 364.638V364.669C499.8 366.475 500.629 368.495 501.049 370.617L501.13 371.076L491.555 385.018L486.36 387.057C486.36 387.057 478.005 384.207 479.531 383.392C479.913 383.193 480.511 382.132 481.195 380.669C483.236 376.26 486.053 368.125 486.053 368.125V368.058C486.349 364.699 486.819 361.35 487.34 358.016C488.274 352.017 486.559 337.29 486.559 337.29C486.559 337.29 485.946 319.383 484.619 315.31C484.02 313.239 483.622 311.115 483.43 308.968C483.154 306.42 483.093 304.319 483.093 304.319C483.093 304.319 488.595 296.673 498.68 304.931C499.487 305.59 500.197 306.359 500.788 307.215C507.755 317.114 502.146 338.921 502.146 338.921C502.146 338.921 500.742 346.853 498.298 355.605Z" fill="#FFB0B1"/>
<path opacity="0.1" d="M501.146 371.076L491.571 385.018L486.375 387.057C486.375 387.057 478.02 384.207 479.546 383.392C479.929 383.193 480.526 382.132 481.21 380.669C484.747 380.639 486.579 384.003 486.579 384.003L491.06 383.29C491.06 383.29 496.971 371.688 498.298 370.979C499.625 370.271 498.502 365.683 498.502 365.683V364.516C498.538 364.556 498.568 364.602 498.609 364.643V364.674C499.801 366.48 500.629 368.5 501.049 370.622L501.146 371.076Z" fill="black"/>
<path d="M486.885 384.304C486.885 384.304 484.333 379.624 479.444 381.353C479.444 381.353 476.693 386.96 473.942 387.867C471.191 388.774 472.11 391.833 478.326 390.717C484.543 389.6 493.913 388.678 493.913 388.678L494.322 382.974L500.64 374.935C500.64 374.935 504.407 371.525 498.803 364.811V365.979C498.803 365.979 499.926 370.566 498.599 371.275C497.272 371.983 491.382 383.59 491.382 383.59L486.885 384.304Z" fill="#1D2366"/>
<path opacity="0.1" d="M449.285 301.567C449.373 303.109 449.574 304.642 449.887 306.155C444.14 305.313 438.807 305.731 435.311 306.007V301.465L449.285 301.567Z" fill="black"/>
<path opacity="0.1" d="M501.355 308.484C501.355 308.484 493.189 308.882 483.45 308.963C483.175 306.415 483.114 304.314 483.114 304.314C483.114 304.314 488.615 296.668 498.701 304.926C499.507 305.585 500.217 306.353 500.809 307.21C500.967 307.644 501.149 308.07 501.355 308.484V308.484Z" fill="black"/>
<path d="M501.355 307.567C501.355 307.567 465.587 309.295 454.685 306.241C443.783 303.188 432.978 305.833 431.35 305.125C429.722 304.416 431.044 293.319 432.473 290.572C433.902 287.824 441.741 260.038 441.741 260.038L449.285 220.756L457.232 218.57L457.793 218.412L471.64 214.599L481.786 211.8C481.786 211.8 501.962 290.47 500.232 296.271C499.604 298.492 499.502 300.829 499.936 303.096C500.2 304.644 500.678 306.149 501.355 307.567V307.567Z" fill="#1D2366"/>
<path d="M422.99 193.893C422.99 193.893 415.844 201.539 421.255 205.8C426.665 210.062 430.222 206.208 430.222 206.208L422.99 193.893Z" fill="#C7DAF5"/>
<path opacity="0.1" d="M422.99 193.893C422.99 193.893 415.844 201.539 421.255 205.8C426.665 210.062 430.222 206.208 430.222 206.208L422.99 193.893Z" fill="black"/>
<path d="M480.72 143.621C480.72 143.621 479.883 144.417 478.622 145.589C476.826 147.266 474.166 149.718 471.808 151.772C468.542 154.612 465.847 156.696 466.812 154.917C467.776 153.138 467.593 150.039 467.113 147.139C467.077 146.945 467.046 146.751 467.011 146.563C466.613 144.433 466.087 142.328 465.434 140.262C465.434 140.262 470.711 133.452 473.63 130.766C474.718 129.746 475.478 129.328 475.524 130.037C475.575 130.99 476.29 133.095 477.178 135.328C477.203 135.399 477.229 135.465 477.259 135.537C477.851 137.066 478.52 138.636 479.107 139.992C480.005 142.072 480.72 143.621 480.72 143.621Z" fill="#FFB0B1"/>
<path opacity="0.1" d="M477.259 135.537C476.763 138.201 475.56 140.683 473.775 142.724C471.99 144.765 469.689 146.29 467.113 147.139C466.707 144.812 466.146 142.514 465.434 140.262C465.434 140.262 475.371 127.442 475.524 130.037C475.56 131.02 476.336 133.202 477.259 135.537Z" fill="black"/>
<path opacity="0.1" d="M466.123 150.564L467.409 148.755C467.409 148.755 468.261 153.944 471.395 151.655C474.529 149.366 474.682 168.879 474.682 168.879L471.318 219.105L447.014 217.652L447.703 193.383L450.454 181.149L457.257 163.364L461.305 157.487L466.123 150.564Z" fill="black"/>
<path d="M474.682 169.19L471.62 214.604L471.298 219.416L457.747 218.605L457.237 218.575L447.029 217.963L447.718 193.689L450.469 181.455L457.273 163.67L461.32 157.792L466.138 150.845L467.424 149.04C467.424 149.04 468.277 154.229 471.41 151.941L471.477 151.895C474.539 149.958 474.682 169.19 474.682 169.19Z" fill="#1D2366"/>
<path d="M450.811 177.204C450.811 177.204 449.591 179.752 447.141 179.339C444.691 178.927 444.697 188.515 444.697 188.515C444.697 188.515 443.068 190.044 441.946 188.719C440.823 187.393 437.862 191.874 437.862 191.874L419.315 192.69C419.315 192.69 427.568 196.457 425.95 207.855C425.95 207.855 453.97 206.122 454.889 203.476C455.808 200.83 450.811 177.204 450.811 177.204Z" fill="white"/>
<path opacity="0.03" d="M450.811 177.204C450.811 177.204 449.591 179.752 447.141 179.339C444.691 178.927 444.697 188.515 444.697 188.515C444.697 188.515 443.068 190.044 441.946 188.719C440.823 187.393 437.862 191.874 437.862 191.874L419.315 192.69C419.315 192.69 427.568 196.457 425.95 207.855C425.95 207.855 453.97 206.122 454.889 203.476C455.808 200.83 450.811 177.204 450.811 177.204Z" fill="black"/>
<path d="M396.909 198.679L401.798 202.849L442.048 211.296L437.056 206.208L396.909 198.679Z" fill="white"/>
<path d="M466.199 152.17C465.531 153.189 463.617 158.409 462.019 162.966C460.687 166.764 459.574 170.103 459.574 170.103C459.574 170.103 456.977 186.996 455.65 190.049C454.323 193.103 455.042 205.01 455.042 205.01L450.097 234.418C450.097 234.418 447.856 249.583 444.396 258.641C440.981 267.556 437.179 271.736 437.061 271.869C438.592 269.799 446.937 229.05 446.937 229.05L449.693 177.657C449.693 177.657 450.097 172.774 450.505 168.599C450.913 164.424 459.181 158.725 459.181 158.725L467.154 147.404C467.955 148.474 467.419 150.34 466.199 152.17Z" fill="white"/>
<path d="M445.411 218.218C445.411 218.218 433.672 217.708 427.986 210.888C422.301 204.067 441.129 208.166 441.129 208.166L446.024 209.287L445.411 218.218Z" fill="#FFB0B1"/>
<path opacity="0.1" d="M500.232 296.276C499.604 298.497 499.502 300.834 499.936 303.101C487.13 304.008 473.431 300.552 473.431 300.552C470.879 302.897 464.158 306.353 464.158 306.353L460.493 260.986C458.15 254.869 457.232 222.821 457.232 222.821C457.232 222.821 457.441 221.144 457.742 218.631C457.742 218.57 457.742 218.503 457.768 218.442C458.681 211.423 460.493 198.246 461.381 196.467C462.606 194.02 457.614 187.511 457.614 187.511L459.886 168.166L460.161 165.831C464.949 163.695 468.618 156.875 468.618 156.875L471.436 151.946C474.498 149.983 474.656 169.216 474.656 169.216L471.594 214.629L481.741 211.831C481.741 211.831 501.962 290.475 500.232 296.276Z" fill="black"/>
<path d="M513.375 299.411C499.415 306.333 474.044 299.92 474.044 299.92C471.492 302.265 464.77 305.721 464.77 305.721L461.101 260.354C458.763 254.237 457.844 222.189 457.844 222.189C457.844 222.189 460.794 198.277 462.019 195.835C462.376 195.121 462.203 194.061 461.779 192.919C459.697 187.484 458.931 181.635 459.544 175.848L460.524 167.534L460.794 165.204C465.587 163.063 469.257 156.243 469.257 156.243L471.809 151.777L476.504 143.55L478.729 139.656L479.107 139.997L481.991 142.607C481.991 142.607 483.216 143.627 485.053 145.156C489.049 148.52 495.955 154.443 499.518 158.068C502.651 161.259 503.641 173.671 503.927 183.015C504.116 189.167 504.004 193.99 504.004 193.99C500.845 199.184 509.108 240.886 509.108 240.886C511.032 248.946 513.375 299.411 513.375 299.411Z" fill="white"/>
<path opacity="0.03" d="M486.579 156.141C486.579 156.141 476.999 174.354 478.112 181.277C479.224 188.199 482.389 196.034 480.863 197.864C480.338 198.557 479.661 199.12 478.882 199.508C478.104 199.896 477.246 200.099 476.376 200.101C474.845 200.203 470.762 203.053 470.762 203.359C470.762 203.665 466.99 203.665 463.617 205.092C460.243 206.519 455.262 207.33 455.262 207.33C455.262 207.33 445.564 207.024 444.661 207.941C443.758 208.859 442.829 214.349 444.763 218.728C446.697 223.106 448.846 226.374 450.469 226.97C452.092 227.567 462.392 224.121 470.747 223.305C479.102 222.49 488.172 215.878 488.172 215.878C488.172 215.878 498.16 212.31 499.91 206.31C501.661 200.31 497.772 167.335 497.772 167.335C497.772 167.335 494.832 151.966 486.579 156.141Z" fill="black"/>
<path opacity="0.03" d="M485.354 154.612C485.354 154.612 475.774 172.83 476.897 179.747C478.02 186.665 481.174 194.504 479.643 196.34C479.12 197.034 478.444 197.597 477.666 197.985C476.888 198.374 476.031 198.576 475.162 198.577C473.631 198.679 469.547 201.529 469.547 201.835C469.547 202.14 465.776 202.14 462.402 203.563C459.028 204.985 454.047 205.8 454.047 205.8C454.047 205.8 444.35 205.495 443.451 206.412C442.553 207.33 441.614 212.825 443.553 217.198C445.493 221.572 447.636 224.845 449.259 225.441C450.882 226.037 461.182 222.592 469.537 221.781C477.892 220.971 486.962 214.349 486.962 214.349C486.962 214.349 496.945 210.781 498.675 204.786C500.406 198.791 496.537 165.806 496.537 165.806C496.537 165.806 493.607 150.442 485.354 154.612Z" fill="black"/>
<path d="M486.278 155.223C486.278 155.223 476.698 173.442 477.821 180.359C478.944 187.276 482.098 195.116 480.572 196.946C480.049 197.642 479.372 198.207 478.593 198.596C477.815 198.985 476.956 199.188 476.085 199.189C474.554 199.291 470.471 202.14 470.471 202.441C470.471 202.742 466.705 202.747 463.326 204.174C459.947 205.602 454.971 206.412 454.971 206.412C454.971 206.412 445.273 206.106 444.37 207.024C443.467 207.941 442.538 213.437 444.472 217.81C446.406 222.184 448.555 225.456 450.178 226.053C451.801 226.649 462.101 223.203 470.456 222.388C478.811 221.572 487.881 214.961 487.881 214.961C487.881 214.961 497.869 211.392 499.619 205.393C501.37 199.393 497.506 166.417 497.506 166.417C497.506 166.417 494.526 151.074 486.278 155.223Z" fill="white"/>
<path opacity="0.1" d="M486.069 204.088C486.069 204.088 478.413 202.559 481.077 205.107C483.741 207.656 483.726 209.889 486.988 209.787C490.249 209.685 486.069 204.088 486.069 204.088Z" fill="black"/>
<path opacity="0.1" d="M499.007 258.926C499.007 258.926 495.547 261.266 502.166 266.659C508.786 272.052 499.007 258.926 499.007 258.926Z" fill="black"/>
<path opacity="0.1" d="M492.403 278.159C492.403 278.465 491.178 289.374 495.761 292.101C500.344 294.828 492.403 278.159 492.403 278.159Z" fill="black"/>
<path d="M419.631 192.664C415.936 192.792 407.954 193.918 412.093 201.631C415.753 208.456 421.903 203.894 425.363 200.433C424.519 197.206 422.468 194.425 419.631 192.664V192.664Z" fill="#FFB0B1"/>
<path d="M425.409 200.372L425.563 200.214L425.409 200.372Z" fill="#FFB0B1"/>
<path opacity="0.1" d="M485.053 145.467C481.133 148.143 477.846 150.401 477.203 150.87C475.447 152.17 472.099 159.801 469.94 163.695C468.22 166.83 462.632 167.636 460.524 167.834L460.794 165.505C465.587 163.364 469.256 156.544 469.256 156.544L478.729 139.956L481.991 142.918C481.991 142.918 483.215 143.937 485.053 145.467Z" fill="black"/>
<path d="M485.053 145.161C481.133 147.837 477.846 150.095 477.203 150.569C475.447 151.864 472.099 159.495 469.94 163.389C468.22 166.524 462.632 167.33 460.524 167.529L460.794 165.199C465.587 163.058 469.256 156.238 469.256 156.238L478.729 139.651L481.991 142.602C481.991 142.602 483.215 143.611 485.053 145.161Z" fill="#DCE7FF"/>
<path d="M477.51 132.173C477.512 135.232 476.583 138.221 474.845 140.741C472.794 143.722 469.74 145.868 466.239 146.792C462.738 147.717 459.022 147.357 455.764 145.778C452.506 144.199 449.922 141.506 448.482 138.188C447.042 134.869 446.841 131.145 447.914 127.691C448.988 124.237 451.266 121.282 454.335 119.362C457.404 117.442 461.06 116.685 464.641 117.227C468.221 117.769 471.488 119.575 473.849 122.317C476.21 125.059 477.509 128.556 477.51 132.173V132.173Z" fill="#FFB0B1"/>
<path opacity="0.1" d="M503.927 183.02C501.854 181.746 500.166 179.935 499.043 177.78C498.19 176.097 497.624 174.155 496.169 172.963C494.858 171.892 493.107 171.632 491.474 171.153C486.104 169.568 481.603 164.674 481.434 159.087C481.353 156.457 482.174 153.832 481.802 151.227C481.59 149.753 481.003 148.357 480.097 147.174C479.647 146.609 479.154 146.079 478.622 145.589C477.908 144.916 477.157 144.264 476.504 143.55C476.092 143.108 475.733 142.621 475.432 142.097C475.189 141.669 474.993 141.216 474.845 140.746C473.824 137.627 474.753 133.926 473.63 130.771L473.569 130.597C473.146 129.476 472.283 128.354 471.084 128.268C469.884 128.181 468.858 129.175 467.715 129.619C465.321 130.546 462.739 128.966 460.743 127.355C458.748 125.745 456.497 123.904 453.96 124.261C452.281 124.501 450.954 125.643 449.407 126.234C449.058 126.369 448.698 126.473 448.331 126.545C449.639 123.285 452.044 120.582 455.131 118.901C458.218 117.219 461.796 116.664 465.248 117.331C468.701 117.997 471.813 119.844 474.051 122.553C476.288 125.262 477.511 128.666 477.509 132.178C477.511 133.238 477.4 134.296 477.178 135.333C477.203 135.404 477.229 135.471 477.259 135.542C477.851 137.071 478.52 138.641 479.107 139.997L481.991 142.607C481.991 142.607 483.216 143.627 485.053 145.156C489.049 148.52 495.955 154.443 499.517 158.068C502.651 161.269 503.631 173.676 503.927 183.02Z" fill="black"/>
<path d="M449.229 116.921C449.959 115.437 450.321 113.776 451.194 112.369C452.475 110.33 454.711 109.025 457.007 108.235C463.004 106.17 475.677 103.173 479.464 108.235C480.21 109.254 480.827 110.386 481.858 111.089C482.644 111.625 483.593 111.854 484.456 112.257C486.87 113.388 488.411 115.855 489.233 118.374C490.055 120.892 490.3 123.593 490.902 126.188C491.673 129.517 493.025 132.672 494.373 135.807C495.96 139.508 497.644 143.346 500.707 145.961C504.887 149.529 505.811 154.581 509.69 158.496C514.283 163.145 514.135 170.816 511.767 176.908C511.456 177.708 511.103 178.544 511.226 179.396C511.348 180.247 511.981 181.022 512.578 181.7L515.089 184.529C509.149 185.961 502.427 182.862 499.66 177.423C498.808 175.741 498.242 173.804 496.782 172.606C495.475 171.535 493.72 171.28 492.091 170.801C486.722 169.211 482.22 164.312 482.052 158.725C481.97 156.1 482.792 153.475 482.42 150.875C482.212 149.391 481.623 147.986 480.71 146.797C479.306 144.967 477.188 143.739 476.045 141.7C474.11 138.289 475.58 133.86 474.187 130.2C473.758 129.078 472.901 127.957 471.701 127.87C470.502 127.784 469.476 128.778 468.328 129.221C465.939 130.149 463.357 128.574 461.361 126.958C459.365 125.342 457.114 123.507 454.573 123.869C452.894 124.103 451.572 125.245 450.025 125.841C448.882 126.28 446.565 126.672 445.564 125.709C443.451 123.767 448.346 118.736 449.229 116.921Z" fill="#591D4B"/>
<path opacity="0.1" d="M501.079 175.741C500.222 174.058 499.66 172.121 498.201 170.929C496.894 169.858 495.138 169.598 493.505 169.119C488.141 167.534 483.639 162.635 483.466 157.048C483.384 154.423 484.206 151.793 483.838 149.193C483.625 147.718 483.036 146.323 482.129 145.14C480.72 143.31 478.602 142.082 477.464 140.043C475.529 136.638 476.999 132.208 475.601 128.543C475.177 127.427 474.314 126.305 473.12 126.214C471.926 126.122 470.89 127.126 469.747 127.569C467.358 128.497 464.77 126.917 462.78 125.306C460.789 123.695 458.528 121.855 455.992 122.212C454.312 122.452 452.985 123.593 451.444 124.185C450.301 124.623 447.978 125.021 446.978 124.057C444.875 122.018 449.77 116.997 450.648 115.193C451.378 113.704 451.74 112.048 452.618 110.641C452.664 110.564 452.715 110.488 452.766 110.411C452.109 110.955 451.543 111.598 451.087 112.318C450.214 113.725 449.852 115.376 449.122 116.87C448.239 118.674 443.344 123.711 445.452 125.734C446.473 126.703 448.77 126.305 449.913 125.867C451.444 125.271 452.781 124.129 454.46 123.894C457.012 123.532 459.258 125.372 461.249 126.983C463.239 128.594 465.842 130.174 468.22 129.247C469.364 128.803 470.364 127.804 471.589 127.896C472.814 127.987 473.631 129.104 474.075 130.225C475.468 133.885 473.998 138.315 475.932 141.725C477.076 143.728 479.194 144.982 480.597 146.823C481.511 148.011 482.1 149.417 482.307 150.901C482.68 153.5 481.858 156.126 481.94 158.751C482.108 164.358 486.61 169.236 491.979 170.827C493.597 171.306 495.363 171.561 496.67 172.631C498.134 173.829 498.711 175.766 499.548 177.448C502.314 182.887 509.036 185.987 514.977 184.554L513.793 183.219C508.643 183.295 503.432 180.369 501.079 175.741Z" fill="black"/>
<path opacity="0.1" d="M465.893 152.476C465.224 153.495 463.31 158.715 461.713 163.272C460.217 162.691 458.86 158.985 458.86 158.985L466.832 147.659C467.649 148.78 467.113 150.641 465.893 152.476Z" fill="black"/>
<path d="M466.199 152.17C465.531 153.189 463.617 158.409 462.019 162.966C460.524 162.39 459.166 158.679 459.166 158.679L467.138 147.358C467.955 148.474 467.419 150.34 466.199 152.17Z" fill="#DCE7FF"/>
<path d="M419.846 204.246L415.426 190.325C415.374 190.162 415.354 189.99 415.368 189.819C415.383 189.649 415.43 189.483 415.509 189.331C415.588 189.179 415.696 189.044 415.827 188.933C415.958 188.823 416.11 188.74 416.273 188.688V188.688C416.602 188.586 416.958 188.617 417.264 188.776C417.57 188.934 417.801 189.207 417.906 189.534L422.326 203.44L421.888 206.351L419.846 204.246Z" fill="#BE8B87"/>
<path opacity="0.1" d="M415.844 189.101C416.174 188.997 416.531 189.028 416.838 189.186C417.146 189.345 417.377 189.619 417.483 189.947L421.903 203.853L421.571 206.035L421.892 206.371L422.331 203.461L417.886 189.555C417.78 189.227 417.549 188.954 417.244 188.796C416.938 188.637 416.582 188.606 416.253 188.709V188.709C415.976 188.798 415.737 188.978 415.574 189.218C415.66 189.172 415.751 189.133 415.844 189.101V189.101Z" fill="white"/>
<path d="M419.846 204.246L422.326 203.461L421.964 205.846L421.887 206.371L421.163 205.617L419.846 204.246Z" fill="#EFC8C4"/>
<path d="M421.163 205.617C421.206 205.562 421.26 205.517 421.321 205.484C421.357 205.462 421.398 205.45 421.441 205.45C421.483 205.45 421.525 205.462 421.561 205.484C421.595 205.526 421.625 205.573 421.647 205.622C421.681 205.678 421.727 205.726 421.782 205.762C421.837 205.799 421.899 205.822 421.964 205.831L421.887 206.341L421.163 205.617Z" fill="#727A9C"/>
<path d="M415.4 195.269C415.4 195.269 424.266 195.218 422.178 198.985C420.091 202.752 416.829 203.206 416.829 203.206L415.4 195.269Z" fill="#FFB0B1"/>
<path d="M360.263 26.2112H359.88C344.65 26.2112 331.181 34.2602 323.433 46.1373C315.686 34.2602 302.216 26.2112 286.986 26.2112H286.604C275.174 26.32 264.249 30.9295 256.203 39.0379C248.157 47.1463 243.64 58.0985 243.634 69.5143C243.634 83.6904 249.851 103.805 261.972 120.357C285.067 151.895 323.433 179.487 323.433 179.487C323.433 179.487 361.799 151.9 384.889 120.357C397.016 103.805 403.227 83.6904 403.227 69.5143C403.221 58.0993 398.705 47.1479 390.66 39.0397C382.615 30.9314 371.692 26.3214 360.263 26.2112V26.2112ZM354.786 122.783C353.052 122.776 351.36 122.246 349.933 121.262C348.505 120.277 347.409 118.885 346.789 117.267H337.683C337.084 117.264 336.5 117.073 336.014 116.722C335.529 116.371 335.165 115.878 334.973 115.31L332.176 106.894L323.326 137.78C323.154 138.374 322.793 138.897 322.298 139.269C321.803 139.642 321.2 139.843 320.58 139.844H320.402C319.755 139.813 319.139 139.561 318.656 139.131C318.172 138.7 317.852 138.117 317.748 137.479L308.627 82.6913L301.961 115.111C301.808 115.727 301.453 116.274 300.953 116.665C300.452 117.056 299.835 117.268 299.2 117.267H286.374C285.989 117.284 285.606 117.222 285.246 117.086C284.886 116.951 284.557 116.744 284.279 116.478C284.001 116.212 283.78 115.892 283.629 115.539C283.478 115.185 283.4 114.805 283.4 114.421C283.4 114.036 283.478 113.656 283.629 113.302C283.78 112.949 284.001 112.629 284.279 112.364C284.557 112.098 284.886 111.89 285.246 111.755C285.606 111.619 285.989 111.557 286.374 111.574H296.954L306.397 67.9851C306.552 67.3406 306.926 66.77 307.455 66.3706C307.985 65.9713 308.637 65.7681 309.3 65.7958C309.963 65.8235 310.596 66.0804 311.09 66.5225C311.585 66.9646 311.91 67.5644 312.011 68.2196L321.325 124.108L329.257 96.4749C329.422 95.8929 329.771 95.3799 330.252 95.0124C330.733 94.6449 331.321 94.4427 331.926 94.4359H331.982C332.582 94.4361 333.167 94.6254 333.652 94.9769C334.138 95.3284 334.5 95.8241 334.687 96.3933L339.745 111.589H346.676C347.169 110.094 348.066 108.763 349.268 107.745C350.47 106.727 351.93 106.06 353.488 105.818C355.045 105.576 356.639 105.769 358.094 106.375C359.549 106.981 360.808 107.976 361.732 109.251C362.656 110.527 363.209 112.032 363.33 113.602C363.452 115.171 363.137 116.744 362.42 118.146C361.703 119.548 360.612 120.725 359.268 121.546C357.923 122.368 356.378 122.803 354.802 122.803L354.786 122.783Z" fill="#458FF6"/>
</g>
<defs>
<linearGradient id="paint0_linear" x1="181.867" y1="394.988" x2="181.867" y2="81.3201" gradientUnits="userSpaceOnUse">
<stop stop-color="#808080" stop-opacity="0.25"/>
<stop offset="0.54" stop-color="#808080" stop-opacity="0.12"/>
<stop offset="1" stop-color="#808080" stop-opacity="0.1"/>
</linearGradient>
<linearGradient id="paint1_linear" x1="113927" y1="236667" x2="113927" y2="75658.2" gradientUnits="userSpaceOnUse">
<stop stop-color="#808080" stop-opacity="0.25"/>
<stop offset="0.54" stop-color="#808080" stop-opacity="0.12"/>
<stop offset="1" stop-color="#808080" stop-opacity="0.1"/>
</linearGradient>
<clipPath id="clip0">
<rect width="564" height="399" fill="white"/>
</clipPath>
</defs>
</svg>
