<svg width="36" height="36" viewBox="0 0 36 36" fill="none" xmlns="http://www.w3.org/2000/svg">
<path d="M32.625 11.3572H24.75V3.40716C24.75 3.0343 24.6773 2.66509 24.5359 2.32061C24.3946 1.97613 24.1874 1.66313 23.9262 1.39948C23.6651 1.13583 23.355 0.926686 23.0138 0.783999C22.6726 0.641311 22.3068 0.567871 21.9375 0.567871H14.0625C13.3166 0.567871 12.6012 0.867009 12.0738 1.39948C11.5463 1.93195 11.25 2.65413 11.25 3.40716V11.3572H3.375C3.00566 11.3572 2.63993 11.4306 2.2987 11.5733C1.95747 11.716 1.64743 11.9251 1.38626 12.1888C0.858816 12.7212 0.5625 13.4434 0.5625 14.1964V17.6036H9.75375L11.295 13.975C11.3417 13.8659 11.4211 13.7744 11.522 13.7133C11.6229 13.6522 11.7402 13.6245 11.8575 13.6343C11.9738 13.6433 12.0845 13.6885 12.1742 13.7638C12.2638 13.8391 12.3281 13.9407 12.3581 14.0545L14.1806 20.9539L16.3575 15.6842C16.3989 15.5835 16.4682 15.4969 16.557 15.4349C16.6459 15.3728 16.7505 15.3379 16.8585 15.3343C16.9665 15.3307 17.0732 15.3586 17.1659 15.4146C17.2586 15.4706 17.3334 15.5524 17.3813 15.6502L18.9338 18.7904L20.8125 10.6587C20.8422 10.5316 20.9143 10.4188 21.0168 10.3392C21.1192 10.2595 21.2457 10.218 21.375 10.2214C21.5066 10.2188 21.635 10.2628 21.7377 10.3458C21.8405 10.4288 21.9112 10.5455 21.9375 10.6757L23.8331 20.2384L24.8062 17.967C24.846 17.8629 24.9151 17.773 25.0052 17.7083C25.0952 17.6437 25.2021 17.6073 25.3125 17.6036H35.4375V14.1964C35.4375 13.4434 35.1412 12.7212 34.6137 12.1888C34.0863 11.6563 33.3709 11.3572 32.625 11.3572Z" fill="#458FF6"/>
<path d="M24.1425 22.3679C24.0958 22.477 24.0164 22.5685 23.9155 22.6296C23.8146 22.6907 23.6973 22.7184 23.58 22.7086C23.4602 22.6964 23.3474 22.6456 23.2583 22.5638C23.1692 22.4821 23.1085 22.3736 23.085 22.2543L21.33 13.4582L19.6875 20.5735C19.6614 20.6875 19.6011 20.7906 19.5148 20.8687C19.4284 20.9468 19.3203 20.9961 19.2051 21.0098C19.09 21.0234 18.9735 21.0009 18.8715 20.9451C18.7696 20.8894 18.6872 20.8032 18.6356 20.6984L16.9481 17.2913L14.6081 22.9698C14.5582 23.0707 14.4796 23.1543 14.3824 23.2099C14.2853 23.2655 14.1739 23.2907 14.0625 23.2822H14.0231C13.9058 23.2743 13.7939 23.2295 13.7031 23.1542C13.6123 23.0788 13.5472 22.9766 13.5169 22.8619L11.6888 15.9341L10.6425 18.3986C10.5986 18.5002 10.5262 18.5865 10.4342 18.6471C10.3423 18.7076 10.2348 18.7397 10.125 18.7393H0.5625V22.1464C0.5625 22.8995 0.858816 23.6216 1.38626 24.1541C1.64743 24.4178 1.95747 24.6269 2.2987 24.7696C2.63993 24.9123 3.00566 24.9857 3.375 24.9857H11.25V32.9357C11.25 33.6887 11.5463 34.4109 12.0738 34.9434C12.6012 35.4759 13.3166 35.775 14.0625 35.775H21.9375C22.6834 35.775 23.3988 35.4759 23.9262 34.9434C24.4537 34.4109 24.75 33.6887 24.75 32.9357V24.9857H32.625C33.3709 24.9857 34.0863 24.6866 34.6137 24.1541C35.1412 23.6216 35.4375 22.8995 35.4375 22.1464V18.7393H25.6838L24.1425 22.3679Z" fill="#458FF6"/>
</svg>
