<svg width="72" height="74" viewBox="0 0 72 74" fill="none" xmlns="http://www.w3.org/2000/svg">
<path d="M35.0861 40.0351C35.2964 40.2453 35.5815 40.3634 35.8788 40.3634C36.1761 40.3634 36.4612 40.2453 36.6715 40.0351L40.6361 36.0716C41.2671 35.4408 41.6217 34.5851 41.6218 33.6928C41.6219 32.8005 41.2675 31.9448 40.6367 31.3138C40.0058 30.6828 39.1501 30.3282 38.2578 30.3281C37.3656 30.328 36.5098 30.6824 35.8788 31.3132V31.3132C35.2479 30.6824 34.3923 30.3279 33.5002 30.3279C32.608 30.3279 31.7524 30.6824 31.1215 31.3132C30.4906 31.9441 30.1362 32.7997 30.1362 33.6919C30.1362 34.584 30.4906 35.4397 31.1215 36.0705L35.0861 40.0351ZM32.7069 32.9008C32.811 32.7966 32.9347 32.7139 33.0708 32.6575C33.2069 32.6011 33.3528 32.572 33.5002 32.572C33.6475 32.572 33.7934 32.6011 33.9295 32.6575C34.0656 32.7139 34.1893 32.7966 34.2934 32.9008L35.0861 33.6935C35.2964 33.9037 35.5815 34.0218 35.8788 34.0218C36.1761 34.0218 36.4612 33.9037 36.6715 33.6935L37.4642 32.902C37.5683 32.7978 37.6919 32.7151 37.8279 32.6587C37.964 32.6023 38.1098 32.5733 38.2571 32.5732C38.4043 32.5732 38.5502 32.6021 38.6862 32.6584C38.8223 32.7147 38.946 32.7973 39.0501 32.9014C39.1543 33.0055 39.237 33.1291 39.2934 33.2651C39.3498 33.4012 39.3788 33.547 39.3789 33.6943C39.3789 33.8415 39.35 33.9874 39.2937 34.1235C39.2374 34.2595 39.1548 34.3832 39.0507 34.4874L35.8788 37.657L32.708 34.4862C32.4977 34.2761 32.3794 33.9911 32.3792 33.6938C32.379 33.3965 32.4968 33.1113 32.7069 32.9008Z" fill="#458FF6"/>
<path d="M49.3333 2.24243H22.4242C20.3434 2.24481 18.3485 3.07246 16.8771 4.54382C15.4058 6.01518 14.5781 8.0101 14.5758 10.0909V34.9258L7.57939 47.0348C5.53886 50.552 4.68571 54.633 5.14636 58.673L6.35727 69.6385L8.58848 69.3918L7.36636 58.4264C6.96673 54.8608 7.72126 51.261 9.51909 48.1561L14.5758 39.4106V53.9527L13.9479 55.0515L15.8876 56.1727L21.4936 46.463C21.6398 46.2072 21.8352 45.9828 22.0686 45.803C22.302 45.6231 22.5687 45.4913 22.8533 45.4152C23.138 45.3391 23.4349 45.3202 23.7269 45.3595C24.0189 45.3989 24.3002 45.4958 24.5545 45.6445C24.8116 45.7878 25.0366 45.982 25.2159 46.2153C25.3952 46.4485 25.525 46.716 25.5973 47.0012C25.6754 47.2859 25.6959 47.5833 25.6574 47.876C25.6188 48.1687 25.5222 48.4507 25.373 48.7055L21.4488 55.5C21.3664 55.6476 21.3176 55.8116 21.306 55.9802C21.2944 56.1488 21.3202 56.3179 21.3815 56.4754L22.8279 60.0745C23.3004 61.2705 23.5438 62.5447 23.5455 63.8306V65.2882C23.5483 66.5912 23.2969 67.8823 22.8055 69.0891L24.8797 69.9412C24.9358 69.7954 24.9806 69.6609 25.0255 69.5151H49.3333C51.4141 69.5128 53.4091 68.6851 54.8804 67.2138C56.3518 65.7424 57.1794 63.7475 57.1818 61.6667V10.0909C57.1794 8.0101 56.3518 6.01518 54.8804 4.54382C53.4091 3.07246 51.4141 2.24481 49.3333 2.24243V2.24243ZM54.9394 61.6667C54.9394 63.1535 54.3488 64.5794 53.2974 65.6307C52.2461 66.6821 50.8201 67.2727 49.3333 67.2727H25.6197C25.7267 66.6165 25.7829 65.953 25.7879 65.2882V63.8306C25.7859 62.7204 25.6351 61.6155 25.3394 60.5454H54.9394V61.6667ZM54.9394 58.303H24.5321L23.6688 56.1503L27.3239 49.8267C27.6184 49.3165 27.8095 48.7533 27.8863 48.1692C27.9632 47.5852 27.9242 46.9917 27.7717 46.4228C27.6192 45.8538 27.356 45.3204 26.9974 44.8531C26.6387 44.3858 26.1915 43.9937 25.6814 43.6992C25.1712 43.4048 24.608 43.2137 24.0239 43.1368C23.4399 43.06 22.8464 43.099 22.2775 43.2515C21.7085 43.404 21.1751 43.6671 20.7078 44.0258C20.2405 44.3844 19.8484 44.8316 19.5539 45.3418L16.8182 50.0733V13.4546H54.9394V58.303ZM54.9394 11.2121H16.8182V10.0909C16.8182 8.6041 17.4088 7.17817 18.4602 6.12683C19.5115 5.07549 20.9374 4.48486 22.4242 4.48486H49.3333C50.8201 4.48486 52.2461 5.07549 53.2974 6.12683C54.3488 7.17817 54.9394 8.6041 54.9394 10.0909V11.2121Z" fill="#458FF6"/>
<path d="M43.7272 25.9897V23.5455C43.7255 22.9513 43.4886 22.3819 43.0685 21.9618C42.6483 21.5416 42.079 21.3048 41.4848 21.303H30.2727C29.6785 21.3048 29.1092 21.5416 28.689 21.9618C28.2689 22.3819 28.032 22.9513 28.0303 23.5455V25.9897C27.3769 26.2224 26.8111 26.6508 26.4098 27.2166C26.0086 27.7823 25.7914 28.4579 25.7878 29.1515V41.4849C25.7914 42.1784 26.0086 42.8541 26.4098 43.4198C26.8111 43.9856 27.3769 44.414 28.0303 44.6467V47.0909C28.032 47.6851 28.2689 48.2544 28.689 48.6746C29.1092 49.0947 29.6785 49.3316 30.2727 49.3333H41.4848C42.079 49.3316 42.6483 49.0947 43.0685 48.6746C43.4886 48.2544 43.7255 47.6851 43.7272 47.0909V44.6467C44.3806 44.414 44.9464 43.9856 45.3477 43.4198C45.7489 42.8541 45.9661 42.1784 45.9697 41.4849V29.1515C45.9661 28.4579 45.7489 27.7823 45.3477 27.2166C44.9464 26.6508 44.3806 26.2224 43.7272 25.9897V25.9897ZM30.2727 23.5455H41.4848V25.7879H30.2727V23.5455ZM41.4848 47.0909H30.2727V44.8485H41.4848V47.0909ZM43.7272 41.4849C43.7272 41.7822 43.6091 42.0674 43.3988 42.2777C43.1886 42.4879 42.9034 42.6061 42.606 42.6061H29.1515C28.8541 42.6061 28.5689 42.4879 28.3587 42.2777C28.1484 42.0674 28.0303 41.7822 28.0303 41.4849V29.1515C28.0303 28.8542 28.1484 28.569 28.3587 28.3587C28.5689 28.1484 28.8541 28.0303 29.1515 28.0303H42.606C42.9034 28.0303 43.1886 28.1484 43.3988 28.3587C43.6091 28.569 43.7272 28.8542 43.7272 29.1515V41.4849Z" fill="#458FF6"/>
<path d="M30.2727 6.72729H28.0303V8.96972H30.2727V6.72729Z" fill="#458FF6"/>
<path d="M39.2424 6.72729H32.5151V8.96972H39.2424V6.72729Z" fill="#458FF6"/>
<path d="M38.1212 62.7879H33.6364V65.0303H38.1212V62.7879Z" fill="#458FF6"/>
<path d="M19.0605 16.8182V21.3031H21.303V17.9394H24.6666V15.697H20.1818C19.8844 15.697 19.5992 15.8151 19.3889 16.0254C19.1787 16.2357 19.0605 16.5208 19.0605 16.8182Z" fill="#458FF6"/>
<path d="M21.303 23.5455H19.0605V25.7879H21.303V23.5455Z" fill="#458FF6"/>
</svg>
