<svg width="69" height="69" viewBox="0 0 69 69" fill="none" xmlns="http://www.w3.org/2000/svg">
<g clip-path="url(#clip0)">
<path d="M45.5689 33.35C53.0439 33.35 59.0814 27.3125 59.0814 19.8375C59.0814 12.3625 53.0439 6.32498 45.5689 6.32498C38.0939 6.32498 32.0564 12.3625 32.0564 19.8375C32.0564 27.3125 38.0939 33.35 45.5689 33.35ZM56.0626 19.9812C56.0626 25.875 51.3189 30.6187 45.4251 30.6187C43.4126 30.6187 41.4001 30.0437 39.8189 29.0375L53.1876 12.7937C55.0564 14.6625 56.0626 17.1062 56.0626 19.9812ZM45.5689 9.34373C47.5814 9.34373 49.4501 9.91873 51.0314 10.925L37.6626 27.025C35.9376 25.1562 34.9314 22.7125 34.9314 19.9812C34.9314 14.0875 39.6751 9.34373 45.5689 9.34373Z" fill="#458FF6"/>
<path d="M66.9876 37.95C59.8001 26.1625 33.2064 37.0875 29.1814 52.325L32.0564 15.3812C32.6314 7.47499 26.8814 0.71874 18.9751 -1.02588e-05C11.2126 -0.57501 4.31262 5.31874 3.73762 13.0812L0.575124 53.7625C0.000124051 61.525 5.89387 68.2813 13.6564 69C21.2751 69.575 27.7439 64.1125 28.7501 56.925C28.8939 58.3625 29.3251 59.6562 30.0439 60.8062C34.9314 68.7125 47.7251 65.8375 55.6314 61.0938C65.6939 54.7687 71.1564 44.5625 66.9876 37.95ZM18.8314 2.87499C25.0126 3.30624 29.7564 8.76874 29.1814 15.0937L27.7439 33.925L5.17512 32.2L6.61262 13.3687C7.18762 7.18749 12.5064 2.44374 18.8314 2.87499ZM13.9439 66.125C7.76262 65.6938 3.01887 60.2313 3.59387 53.9062L5.03137 35.075L27.6001 36.8L26.1626 55.6313C25.5876 61.9563 20.1251 66.5563 13.9439 66.125ZM32.6314 59.225C29.7564 54.4813 33.9251 46.4312 41.8314 40.9687L53.0439 59.225C45.1376 63.5375 35.6501 64.2563 32.6314 59.225ZM55.3439 57.6437L44.1314 39.3875C52.6126 34.6437 61.6689 34.6437 64.5439 39.3875C67.5626 44.275 63.3939 52.325 55.3439 57.6437Z" fill="#458FF6"/>
</g>
<defs>
<clipPath id="clip0">
<rect width="69" height="69" fill="white"/>
</clipPath>
</defs>
</svg>
